<?xml version="1.0" encoding="UTF-8" standalone="no"?>
<!DOCTYPE svg PUBLIC "-//W3C//DTD SVG 1.1//EN" "http://www.w3.org/Graphics/SVG/1.1/DTD/svg11.dtd">
<svg xmlns="http://www.w3.org/2000/svg" version="1.1" viewBox="0.00 0.00 500.00 500.00">
<g stroke-width="2.00" fill="none" stroke-linecap="butt">
<path stroke="#a5e785" vector-effect="non-scaling-stroke" d="
  M 290.83 43.14
  A 4.72 4.72 0.0 0 0 286.11 38.42
  A 4.72 4.72 0.0 0 0 281.39 43.14
  A 4.72 4.72 0.0 0 0 286.11 47.86
  A 4.72 4.72 0.0 0 0 290.83 43.14"
/>
<path stroke="#b8e687" vector-effect="non-scaling-stroke" d="
  M 223.08 63.19
  A 4.66 4.66 0.0 0 0 218.42 58.53
  A 4.66 4.66 0.0 0 0 213.76 63.19
  A 4.66 4.66 0.0 0 0 218.42 67.85
  A 4.66 4.66 0.0 0 0 223.08 63.19"
/>
<path stroke="#a5e785" vector-effect="non-scaling-stroke" d="
  M 265.23 64.10
  A 4.72 4.72 0.0 0 0 260.51 59.38
  A 4.72 4.72 0.0 0 0 255.79 64.10
  A 4.72 4.72 0.0 0 0 260.51 68.82
  A 4.72 4.72 0.0 0 0 265.23 64.10"
/>
<path stroke="#a5e785" vector-effect="non-scaling-stroke" d="
  M 290.73 72.45
  A 4.77 4.77 0.0 0 0 285.96 67.68
  A 4.77 4.77 0.0 0 0 281.19 72.45
  A 4.77 4.77 0.0 0 0 285.96 77.22
  A 4.77 4.77 0.0 0 0 290.73 72.45"
/>
<path stroke="#a5e785" vector-effect="non-scaling-stroke" d="
  M 319.65 75.59
  A 4.72 4.72 0.0 0 0 314.93 70.87
  A 4.72 4.72 0.0 0 0 310.21 75.59
  A 4.72 4.72 0.0 0 0 314.93 80.31
  A 4.72 4.72 0.0 0 0 319.65 75.59"
/>
<path stroke="#b8e687" vector-effect="non-scaling-stroke" d="
  M 163.58 81.18
  A 4.77 4.77 0.0 0 0 158.81 76.41
  A 4.77 4.77 0.0 0 0 154.04 81.18
  A 4.77 4.77 0.0 0 0 158.81 85.95
  A 4.77 4.77 0.0 0 0 163.58 81.18"
/>
<path stroke="#92f7f1" vector-effect="non-scaling-stroke" d="
  M 237.52 89.65
  L 235.46 92.17
  A 1.10 1.09 16.3 0 1 234.74 92.56
  C 215.33 94.60 236.37 107.84 236.51 115.00
  C 236.68 123.89 232.77 131.72 232.04 140.79"
/>
<path stroke="#89efdd" vector-effect="non-scaling-stroke" d="
  M 232.04 140.79
  Q 227.09 141.96 227.92 146.62
  C 229.26 154.06 242.74 149.87 236.05 140.78"
/>
<path stroke="#92f7f1" vector-effect="non-scaling-stroke" d="
  M 236.05 140.78
  Q 238.59 133.03 245.13 128.43
  C 249.37 125.45 257.76 120.26 256.61 114.13
  Q 256.52 113.62 256.75 113.15
  L 257.84 110.97
  Q 258.08 110.50 257.90 110.00
  C 255.42 103.32 245.31 105.92 249.23 114.02
  Q 249.42 114.42 249.84 114.56
  L 250.70 114.84
  Q 251.41 115.07 251.07 115.74
  Q 247.82 122.05 241.61 125.41
  Q 240.99 125.75 241.00 125.04
  C 241.08 119.93 242.13 114.66 239.61 109.78
  C 238.27 107.19 235.59 104.63 233.57 102.04
  A 0.68 0.68 0.0 0 1 233.55 101.21
  L 236.86 96.65
  A 0.98 0.97 58.1 0 0 237.03 95.89
  Q 236.65 93.92 237.93 92.48
  A 1.24 1.23 63.6 0 0 238.24 91.54
  L 238.06 89.55"
/>
<path stroke="#a5e785" vector-effect="non-scaling-stroke" d="
  M 238.06 89.55
  Q 241.27 91.95 243.79 90.08
  C 248.69 86.44 242.38 78.58 237.84 83.32
  C 236.15 85.08 236.61 87.62 237.52 89.65"
/>
<path stroke="#39df78" vector-effect="non-scaling-stroke" d="
  M 238.06 89.55
  Q 238.12 90.00 237.52 89.65"
/>
<path stroke="#1de7d0" vector-effect="non-scaling-stroke" d="
  M 236.05 140.78
  L 232.04 140.79"
/>
<path stroke="#a5e785" vector-effect="non-scaling-stroke" d="
  M 211.24 150.03
  C 209.36 143.92 204.80 130.21 199.01 127.07
  C 190.62 122.53 189.36 111.87 190.21 103.44
  Q 190.27 102.93 190.75 102.77
  C 195.26 101.27 194.40 94.81 189.51 94.29
  C 183.59 93.66 182.08 100.30 186.17 103.02
  Q 186.59 103.30 186.53 103.80
  Q 185.30 114.83 189.41 125.02
  C 191.33 129.76 196.88 131.18 199.44 136.03
  Q 204.42 145.46 209.53 154.84
  Q 212.34 160.01 213.32 164.23
  C 214.74 170.25 214.41 176.62 216.35 182.48
  Q 216.51 182.95 216.17 183.31
  C 212.82 186.86 217.54 195.91 222.80 192.08
  C 225.81 189.88 224.63 185.43 221.98 183.11
  Q 221.60 182.78 221.59 182.27
  Q 221.49 161.95 216.24 138.00
  Q 214.12 128.32 213.70 113.57
  Q 213.69 113.12 214.07 112.88
  C 217.63 110.57 216.89 106.90 213.85 104.51
  A 0.83 0.82 19.3 0 1 213.53 103.86
  L 213.44 93.44
  Q 213.43 92.98 213.90 92.94
  Q 217.57 92.61 217.97 89.26
  C 218.76 82.65 208.00 80.99 208.52 89.24
  Q 208.64 91.13 210.19 92.18
  Q 210.53 92.41 210.48 92.82
  L 209.15 103.72
  Q 209.09 104.25 208.65 104.55
  Q 204.51 107.37 207.24 111.51
  Q 207.51 111.91 207.89 112.20
  L 209.02 113.05
  Q 209.46 113.38 209.32 113.90
  C 206.26 125.13 210.53 139.23 211.57 149.97
  A 0.17 0.17 0.0 0 1 211.24 150.03"
/>
<path stroke="#82e1e5" vector-effect="non-scaling-stroke" d="
  M 292.3301 96.8835
  A 5.25 4.84 104.9 0 0 298.3573 93.0545
  A 5.25 4.84 104.9 0 0 295.0299 86.7365
  A 5.25 4.84 104.9 0 0 289.0027 90.5655
  A 5.25 4.84 104.9 0 0 292.3301 96.8835"
/>
<path stroke="#89efdd" vector-effect="non-scaling-stroke" d="
  M 320.64 88.74
  Q 317.59 93.24 321.51 96.22
  Q 321.84 96.48 321.84 96.89
  C 321.72 108.47 321.99 119.29 317.37 130.19
  Q 315.46 134.69 313.65 138.99
  A 0.13 0.13 0.0 0 0 313.87 139.13
  C 325.27 126.43 325.13 114.21 325.26 97.03
  Q 325.26 96.51 325.66 96.19
  C 330.48 92.29 326.51 84.23 320.88 88.49
  A 0.82 0.76 -3.2 0 0 320.64 88.74"
/>
<path stroke="#b8e687" vector-effect="non-scaling-stroke" d="
  M 246.96 147.76
  Q 238.55 159.94 241.22 173.50
  C 242.19 178.47 244.60 181.28 249.98 179.31
  Q 250.44 179.15 250.29 178.68
  C 247.22 169.20 246.61 159.13 252.16 150.51"
/>
<path stroke="#89efdd" vector-effect="non-scaling-stroke" d="
  M 252.16 150.51
  Q 255.34 147.21 259.12 144.61
  C 263.03 141.92 264.49 138.08 265.68 133.68
  C 268.85 121.92 273.64 111.52 272.65 97.53
  Q 272.61 97.02 273.04 96.72
  Q 276.61 94.29 274.79 90.50
  C 272.09 84.89 264.85 88.75 266.64 94.78
  A 0.75 0.74 7.9 0 0 266.96 95.20
  L 269.02 96.46
  Q 269.46 96.72 269.47 97.24
  C 269.76 109.21 265.75 119.58 261.28 131.76
  C 259.22 137.37 251.08 143.29 246.96 147.76"
/>
<path stroke="#43d566" vector-effect="non-scaling-stroke" d="
  M 252.16 150.51
  Q 251.44 149.49 250.32 149.46
  Q 249.84 149.45 249.52 149.10
  Q 248.66 148.19 246.96 147.76"
/>
<path stroke="#b8e687" vector-effect="non-scaling-stroke" d="
  M 323.92 152.08
  Q 321.99 154.14 320.98 156.90
  Q 320.82 157.35 320.35 157.39
  C 308.06 158.52 294.93 162.05 287.52 172.90
  C 281.14 182.25 295.25 187.08 297.00 177.65
  C 298.87 167.55 313.22 164.89 321.12 162.08
  Q 321.58 161.92 321.97 162.20
  C 327.89 166.48 331.38 158.38 327.06 153.22"
/>
<path stroke="#a5e785" vector-effect="non-scaling-stroke" d="
  M 327.06 153.22
  Q 336.75 140.06 339.22 124.88
  Q 339.30 124.42 339.75 124.29
  L 342.22 123.56
  A 0.71 0.70 -5.0 0 0 342.73 122.96
  C 343.04 119.99 343.04 117.27 343.79 114.38
  Q 345.21 108.91 345.92 103.21
  Q 345.99 102.66 346.53 102.72
  C 351.70 103.30 351.84 95.79 348.17 94.11
  C 343.36 91.92 338.79 98.06 342.83 101.97
  A 0.93 0.92 -63.8 0 1 343.10 102.77
  L 341.02 115.49
  Q 340.94 115.99 340.44 115.90
  C 334.28 114.77 331.95 118.60 335.12 123.72
  Q 335.38 124.16 335.30 124.66
  C 333.71 134.50 328.97 143.56 323.92 152.08"
/>
<path stroke="#5fce0e" vector-effect="non-scaling-stroke" d="
  M 327.06 153.22
  L 323.92 152.08"
/>
<path stroke="#a5e785" vector-effect="non-scaling-stroke" d="
  M 376.12 106.81
  A 4.58 4.58 0.0 0 0 371.54 102.23
  A 4.58 4.58 0.0 0 0 366.96 106.81
  A 4.58 4.58 0.0 0 0 371.54 111.39
  A 4.58 4.58 0.0 0 0 376.12 106.81"
/>
<path stroke="#a5e785" vector-effect="non-scaling-stroke" d="
  M 307.39 110.83
  A 4.61 4.61 0.0 0 0 302.78 106.22
  A 4.61 4.61 0.0 0 0 298.17 110.83
  A 4.61 4.61 0.0 0 0 302.78 115.44
  A 4.61 4.61 0.0 0 0 307.39 110.83"
/>
<path stroke="#b8e687" vector-effect="non-scaling-stroke" d="
  M 151.6400 120.4197
  A 4.77 4.47 90.6 0 0 156.1598 115.6968
  A 4.77 4.47 90.6 0 0 151.7400 110.8803
  A 4.77 4.47 90.6 0 0 147.2202 115.6032
  A 4.77 4.47 90.6 0 0 151.6400 120.4197"
/>
<path stroke="#b8e687" vector-effect="non-scaling-stroke" d="
  M 174.72 123.26
  A 4.78 4.78 0.0 0 0 169.94 118.48
  A 4.78 4.78 0.0 0 0 165.16 123.26
  A 4.78 4.78 0.0 0 0 169.94 128.04
  A 4.78 4.78 0.0 0 0 174.72 123.26"
/>
<path stroke="#82e1e5" vector-effect="non-scaling-stroke" d="
  M 285.2476 130.2573
  A 4.98 4.34 80.2 0 0 288.6767 124.6113
  A 4.98 4.34 80.2 0 0 283.5524 120.4427
  A 4.98 4.34 80.2 0 0 280.1233 126.0887
  A 4.98 4.34 80.2 0 0 285.2476 130.2573"
/>
<path stroke="#b8e687" vector-effect="non-scaling-stroke" d="
  M 358.71 135.10
  C 358.18 140.42 357.88 146.01 355.63 151.03
  C 352.28 158.48 349.20 168.87 340.48 172.26
  C 329.50 176.51 316.81 179.21 310.69 190.41
  C 309.83 191.99 308.93 194.62 307.92 196.66
  Q 307.66 197.17 307.12 197.01
  C 296.52 193.96 286.20 190.43 278.03 200.19
  Q 275.41 203.32 274.70 205.43
  C 273.45 209.12 275.46 215.39 280.54 214.12
  C 287.42 212.41 281.19 206.56 285.58 203.35
  C 294.88 196.55 307.36 207.96 313.91 201.57
  C 316.28 199.25 315.97 194.44 317.83 191.49
  C 321.96 184.92 333.37 181.29 341.09 179.41
  C 350.71 177.05 357.50 159.25 359.40 150.66
  Q 359.52 150.08 360.10 150.21
  C 364.67 151.19 364.85 146.65 364.77 142.91
  Q 364.75 141.63 364.26 141.25
  Q 363.54 140.67 362.07 141.44
  Q 360.54 142.24 361.05 140.60
  Q 361.82 138.10 361.27 134.80"
/>
<path stroke="#89efdd" vector-effect="non-scaling-stroke" d="
  M 361.27 134.80
  Q 366.42 129.51 361.96 125.99
  C 356.53 121.71 350.92 131.12 358.71 135.10"
/>
<path stroke="#43d566" vector-effect="non-scaling-stroke" d="
  M 361.27 134.80
  Q 360.04 134.29 358.71 135.10"
/>
<path stroke="#a5e785" vector-effect="non-scaling-stroke" d="
  M 403.51 132.52
  A 4.60 4.60 0.0 0 0 398.91 127.92
  A 4.60 4.60 0.0 0 0 394.31 132.52
  A 4.60 4.60 0.0 0 0 398.91 137.12
  A 4.60 4.60 0.0 0 0 403.51 132.52"
/>
<path stroke="#b8e687" vector-effect="non-scaling-stroke" d="
  M 124.81 136.29
  A 4.73 4.73 0.0 0 0 120.08 131.56
  A 4.73 4.73 0.0 0 0 115.35 136.29
  A 4.73 4.73 0.0 0 0 120.08 141.02
  A 4.73 4.73 0.0 0 0 124.81 136.29"
/>
<path stroke="#caf782" vector-effect="non-scaling-stroke" d="
  M 304.12 140.75
  C 295.15 143.41 285.93 146.52 278.82 152.30
  Q 263.06 165.12 258.23 185.15
  C 256.65 191.70 257.33 199.46 257.00 206.55
  C 256.71 212.82 251.43 213.45 246.50 213.50
  A 0.66 0.66 0.0 0 1 245.83 212.88
  C 245.53 208.13 245.61 192.66 237.57 193.09
  C 232.81 193.35 232.01 199.93 236.70 201.40
  Q 237.21 201.56 237.26 202.09
  L 238.64 214.95"
/>
<path stroke="#c6dc83" vector-effect="non-scaling-stroke" d="
  M 238.64 214.95
  C 234.79 214.87 228.73 211.31 224.89 209.96
  C 217.09 207.23 211.01 206.81 203.56 209.41
  Q 203.02 209.60 202.96 209.03
  C 202.05 201.21 197.93 191.50 190.34 187.95
  C 185.83 185.85 178.34 187.04 177.04 180.75
  C 176.40 177.70 176.55 173.21 175.50 169.91
  Q 171.75 158.10 159.08 155.99
  C 157.55 155.73 157.09 155.20 156.23 154.05
  C 152.43 149.01 145.66 153.05 148.46 159.06
  C 150.40 163.20 154.64 161.11 156.15 157.92
  Q 156.37 157.45 156.81 157.73
  Q 159.11 159.21 161.43 160.63
  C 169.19 165.40 169.43 172.33 170.98 180.10
  C 173.51 192.74 183.52 188.69 190.16 195.91
  Q 195.51 201.73 196.08 210.01
  C 196.33 213.71 196.43 217.98 200.40 219.69
  Q 200.90 219.90 201.36 219.63
  Q 212.30 213.19 222.87 219.39
  C 226.43 221.48 229.75 223.57 228.19 227.97
  Q 226.06 233.98 218.49 236.54
  C 198.85 243.18 178.22 226.55 166.64 211.34
  Q 162.04 205.30 160.12 203.84
  C 153.65 198.92 146.32 199.57 139.12 197.51
  Q 131.44 195.32 124.71 190.87
  Q 124.29 190.59 124.15 190.11
  C 122.09 183.00 113.60 184.15 114.28 190.51
  Q 114.89 196.25 120.72 195.00
  A 0.69 0.69 0.0 0 0 121.14 194.74
  L 122.12 193.45
  Q 122.53 192.91 123.03 193.36
  C 129.67 199.29 135.31 201.24 143.91 203.27
  C 157.57 206.50 163.56 218.72 173.17 227.75
  A 0.89 0.88 -49.5 0 1 173.26 228.94
  Q 170.20 232.89 165.21 232.67
  C 162.08 232.54 161.61 231.07 160.47 228.58
  C 157.28 221.66 146.87 229.09 153.59 233.92
  Q 156.08 235.71 158.46 233.50
  Q 158.87 233.12 159.27 233.51
  C 164.67 238.68 172.77 239.12 177.68 232.76
  A 0.63 0.62 -51.0 0 1 178.57 232.66
  Q 188.64 241.07 201.50 243.84
  Q 202.44 244.04 201.52 244.31
  L 185.38 249.06"
/>
<path stroke="#ded583" vector-effect="non-scaling-stroke" d="
  M 185.38 249.06
  C 174.52 251.53 162.29 253.14 153.58 244.78
  C 148.10 239.52 147.71 230.51 138.49 229.71
  Q 126.16 228.63 119.31 227.18
  A 1.52 1.51 -13.6 0 1 118.44 226.65
  C 116.88 224.74 114.54 220.95 111.64 221.82
  C 103.28 224.33 111.22 235.94 114.83 229.60
  A 1.11 1.10 32.0 0 1 116.42 229.24
  C 123.61 234.26 131.18 233.77 139.55 234.07
  A 2.19 2.18 -10.3 0 1 141.49 235.41
  L 145.31 244.70
  Q 145.55 245.29 145.23 245.83
  C 140.29 254.23 120.49 248.97 113.91 245.70
  Q 113.42 245.46 113.23 244.96
  C 112.67 243.49 112.13 242.04 110.99 241.09
  C 107.85 238.47 101.69 241.33 103.49 246.01
  Q 104.78 249.35 108.43 249.55
  Q 108.84 249.57 109.17 249.34
  L 111.27 247.92
  Q 111.78 247.57 112.29 247.92
  C 121.64 254.23 140.58 259.69 149.44 249.06
  Q 149.78 248.66 150.14 249.03
  C 160.64 259.73 173.56 258.01 186.93 254.24"
/>
<path stroke="#c6dc83" vector-effect="non-scaling-stroke" d="
  M 186.93 254.24
  Q 211.60 248.17 219.93 245.41
  C 231.14 241.69 239.05 234.03 236.85 221.23"
/>
<path stroke="#caf782" vector-effect="non-scaling-stroke" d="
  M 236.85 221.23
  C 247.15 222.26 257.88 223.45 257.16 235.87
  Q 257.13 236.40 257.66 236.33
  C 266.25 235.19 266.95 225.07 261.18 219.85
  Q 260.74 219.45 261.27 219.16
  Q 267.72 215.69 267.54 208.26
  C 267.05 188.50 268.99 170.90 284.83 157.39
  C 291.24 151.92 299.40 149.14 305.81 143.20"
/>
<path stroke="#a5e785" vector-effect="non-scaling-stroke" d="
  M 305.81 143.20
  Q 309.04 140.31 309.79 139.32
  C 314.02 133.71 306.35 129.57 303.20 132.67
  Q 299.68 136.16 304.12 140.75"
/>
<path stroke="#70df08" vector-effect="non-scaling-stroke" d="
  M 305.81 143.20
  Q 305.91 141.53 304.12 140.75"
/>
<path stroke="#92d407" vector-effect="non-scaling-stroke" d="
  M 236.85 221.23
  Q 236.60 221.41 236.51 221.05
  Q 236.45 220.84 236.66 220.77
  Q 236.78 220.73 236.91 220.74
  Q 237.17 220.75 237.08 220.51
  Q 235.31 215.80 238.64 214.95"
/>
<path stroke="#a6b208" vector-effect="non-scaling-stroke" d="
  M 186.93 254.24
  Q 185.22 252.59 185.38 249.06"
/>
<path stroke="#b8e687" vector-effect="non-scaling-stroke" d="
  M 194.89 174.45
  C 199.44 177.92 199.92 182.55 200.48 188.19
  Q 200.54 188.80 201.15 188.72
  L 206.57 188.05
  Q 207.19 187.98 207.14 187.35
  C 206.28 176.33 202.84 167.15 191.21 163.97
  C 181.52 161.33 180.41 155.04 177.93 146.72
  A 1.44 1.44 0.0 0 1 177.99 145.76
  C 181.96 136.49 169.81 133.59 168.69 140.79
  Q 168.03 145.07 172.68 146.45
  Q 173.15 146.59 173.22 147.08
  C 174.56 157.42 176.34 164.58 187.18 168.19
  Q 187.80 168.39 187.58 169.01
  Q 186.44 172.14 187.60 175.25
  A 1.14 1.12 2.8 0 0 188.20 175.90
  Q 191.63 177.45 194.04 174.54
  Q 194.42 174.09 194.89 174.45"
/>
<path stroke="#c6dc83" vector-effect="non-scaling-stroke" d="
  M 143.29 143.87
  A 4.82 4.82 0.0 0 0 138.47 139.05
  A 4.82 4.82 0.0 0 0 133.65 143.87
  A 4.82 4.82 0.0 0 0 138.47 148.69
  A 4.82 4.82 0.0 0 0 143.29 143.87"
/>
<path stroke="#a5e785" vector-effect="non-scaling-stroke" d="
  M 383.76 157.66
  A 4.68 4.68 0.0 0 0 379.08 152.98
  A 4.68 4.68 0.0 0 0 374.40 157.66
  A 4.68 4.68 0.0 0 0 379.08 162.34
  A 4.68 4.68 0.0 0 0 383.76 157.66"
/>
<path stroke="#c6dc83" vector-effect="non-scaling-stroke" d="
  M 99.93 161.37
  A 4.83 4.83 0.0 0 0 95.10 156.54
  A 4.83 4.83 0.0 0 0 90.27 161.37
  A 4.83 4.83 0.0 0 0 95.10 166.20
  A 4.83 4.83 0.0 0 0 99.93 161.37"
/>
<path stroke="#c6dc83" vector-effect="non-scaling-stroke" d="
  M 168.55 199.54
  C 169.31 204.74 176.63 206.60 177.62 200.15
  Q 178.23 196.11 173.91 194.22
  A 1.21 1.20 46.7 0 0 172.98 194.19
  C 165.49 197.05 160.64 185.86 158.68 180.57
  C 157.39 177.10 155.18 174.57 151.95 173.50
  Q 141.56 170.05 134.65 165.95
  Q 134.20 165.68 134.29 165.17
  C 134.58 163.59 135.75 161.55 134.41 160.11
  C 129.97 155.33 122.50 161.56 127.20 167.07
  Q 128.69 168.82 130.71 167.86
  A 0.80 0.79 52.0 0 1 131.55 167.97
  Q 139.31 174.58 149.20 176.93
  C 151.24 177.42 152.88 178.18 153.28 180.24
  C 154.58 187.04 160.08 198.76 167.97 199.02
  Q 168.48 199.03 168.55 199.54"
/>
<path stroke="#a5e785" vector-effect="non-scaling-stroke" d="
  M 407.58 166.42
  A 4.62 4.62 0.0 0 0 402.96 161.80
  A 4.62 4.62 0.0 0 0 398.34 166.42
  A 4.62 4.62 0.0 0 0 402.96 171.04
  A 4.62 4.62 0.0 0 0 407.58 166.42"
/>
<path stroke="#a5e785" vector-effect="non-scaling-stroke" d="
  M 375.54 179.83
  C 370.90 186.19 360.65 196.35 351.82 194.40
  Q 348.98 193.78 341.07 191.15
  C 332.21 188.19 325.92 196.56 326.61 204.75
  C 327.07 210.32 335.71 211.70 335.19 204.99
  Q 335.01 202.57 332.75 200.94
  A 0.58 0.58 0.0 0 1 332.68 200.06
  Q 337.57 195.17 344.57 197.43
  C 351.30 199.60 356.26 202.03 363.21 198.16
  Q 367.52 195.75 374.59 188.38
  Q 375.01 187.95 375.46 188.35
  C 381.16 193.34 386.28 184.42 379.76 180.37
  Q 379.28 180.07 379.73 179.72
  C 383.05 177.17 383.05 170.60 378.03 170.74
  C 373.24 170.87 370.49 176.88 375.32 179.01
  Q 375.94 179.28 375.54 179.83"
/>
<path stroke="#d0d482" vector-effect="non-scaling-stroke" d="
  M 87.51 183.97
  A 4.63 4.63 0.0 0 0 82.88 179.34
  A 4.63 4.63 0.0 0 0 78.25 183.97
  A 4.63 4.63 0.0 0 0 82.88 188.60
  A 4.63 4.63 0.0 0 0 87.51 183.97"
/>
<path stroke="#a5e785" vector-effect="non-scaling-stroke" d="
  M 412.12 194.90
  A 4.51 4.51 0.0 0 0 407.61 190.39
  A 4.51 4.51 0.0 0 0 403.10 194.90
  A 4.51 4.51 0.0 0 0 407.61 199.41
  A 4.51 4.51 0.0 0 0 412.12 194.90"
/>
<path stroke="#d0d482" vector-effect="non-scaling-stroke" d="
  M 102.5154 207.7875
  A 4.76 4.50 83.3 0 0 106.4293 202.5350
  A 4.76 4.50 83.3 0 0 101.4046 198.3325
  A 4.76 4.50 83.3 0 0 97.4907 203.5850
  A 4.76 4.50 83.3 0 0 102.5154 207.7875"
/>
<path stroke="#b8e687" vector-effect="non-scaling-stroke" d="
  M 378.82 210.54
  C 366.49 210.43 353.49 208.89 342.06 214.04
  C 334.40 217.49 328.68 219.61 320.06 219.55
  Q 312.25 219.49 308.33 218.99
  C 290.58 216.71 279.20 225.49 272.89 241.32
  C 266.08 258.40 253.68 270.65 242.25 284.25
  Q 239.38 287.67 237.47 290.70"
/>
<path stroke="#cbb68c" vector-effect="non-scaling-stroke" d="
  M 237.47 290.70
  C 227.17 305.60 222.07 323.46 228.02 340.98"
/>
<path stroke="#c3aea2" vector-effect="non-scaling-stroke" d="
  M 228.02 340.98
  C 233.99 360.17 251.66 370.96 270.95 372.60
  Q 282.32 373.56 293.84 373.64
  Q 294.53 373.65 294.55 372.96
  L 294.82 364.84
  A 0.95 0.95 0.0 0 0 293.91 363.86
  C 275.47 363.14 256.84 356.75 245.94 340.94"
/>
<path stroke="#cbb68c" vector-effect="non-scaling-stroke" d="
  M 245.94 340.94
  Q 240.55 332.72 240.90 323.45
  Q 240.93 322.79 241.37 323.29
  C 251.24 334.42 265.46 337.21 279.68 334.30
  Q 280.17 334.20 280.58 334.49
  C 285.95 338.36 293.25 336.25 299.32 335.68
  C 307.06 334.96 314.04 336.60 321.30 338.65
  Q 321.80 338.79 321.93 339.30
  C 325.89 355.73 341.03 333.07 322.49 335.85
  A 1.87 1.84 -37.0 0 1 321.51 335.72
  Q 312.83 332.11 303.53 331.43
  C 297.58 330.99 291.37 332.88 285.70 330.72
  Q 281.82 329.24 278.27 326.95
  A 0.25 0.25 0.0 0 1 278.38 326.49
  C 288.59 325.12 292.39 318.50 292.84 308.89
  A 0.94 0.91 78.2 0 1 293.33 308.12
  C 301.62 303.89 289.69 294.70 287.33 303.63
  C 286.88 305.30 287.83 307.27 287.29 309.03
  C 286.40 311.93 284.28 317.72 281.80 319.42
  C 276.85 322.82 273.35 317.35 273.29 313.04
  A 1.12 1.11 69.5 0 1 273.68 312.17
  C 274.90 311.13 276.17 310.43 276.56 308.87
  C 278.87 299.62 262.56 302.47 268.51 311.87
  Q 268.79 312.30 268.56 312.76
  C 267.30 315.31 266.34 318.96 263.74 320.35
  C 258.24 323.26 253.15 320.94 249.36 316.39
  Q 240.71 305.97 249.48 293.55"
/>
<path stroke="#b8e687" vector-effect="non-scaling-stroke" d="
  M 249.48 293.55
  C 260.87 280.70 270.94 265.95 289.48 263.68
  C 304.97 261.79 315.25 265.30 331.26 270.47
  Q 339.20 273.03 350.62 272.30
  Q 351.18 272.27 351.35 272.80
  Q 352.52 276.37 355.64 276.53
  C 361.92 276.85 363.34 267.34 357.01 266.64
  Q 353.75 266.28 351.33 269.02
  A 1.28 1.25 -70.9 0 1 350.49 269.44
  C 338.07 270.39 324.48 262.28 313.17 257.88
  Q 295.89 251.17 277.80 255.36
  Q 277.34 255.47 277.62 255.08
  C 281.72 249.53 285.04 242.33 289.14 238.05
  C 297.93 228.89 306.62 227.78 319.07 226.87
  C 327.99 226.22 335.40 224.42 342.96 220.75
  C 354.91 214.94 366.50 215.96 379.63 215.92"
/>
<path stroke="#a5e785" vector-effect="non-scaling-stroke" d="
  M 379.63 215.92
  C 385.83 215.87 386.89 214.80 390.33 210.03
  Q 390.70 209.51 391.06 209.40
  Q 391.67 209.22 392.12 209.78
  Q 392.44 210.17 392.92 210.29
  C 399.19 211.91 400.48 201.78 394.40 201.31
  Q 389.48 200.93 388.62 206.34
  Q 388.55 206.77 388.14 206.93
  L 378.82 210.54"
/>
<path stroke="#5fce0e" vector-effect="non-scaling-stroke" d="
  M 379.63 215.92
  Q 377.99 214.22 378.82 210.54"
/>
<path stroke="#859d15" vector-effect="non-scaling-stroke" d="
  M 249.48 293.55
  L 237.47 290.70"
/>
<path stroke="#906530" vector-effect="non-scaling-stroke" d="
  M 245.94 340.94
  Q 243.61 342.70 240.01 341.53
  Q 239.51 341.38 239.06 341.63
  Q 237.02 342.79 234.56 342.11
  Q 234.47 342.08 234.50 341.99
  Q 234.54 341.87 234.59 341.74
  Q 234.65 341.57 234.48 341.52
  L 232.12 340.86
  Q 231.68 340.73 231.27 340.95
  Q 229.75 341.76 228.02 340.98"
/>
<path stroke="#c6dc83" vector-effect="non-scaling-stroke" d="
  M 128.8449 212.1669
  A 4.64 4.33 101.5 0 0 134.0131 208.4833
  A 4.64 4.33 101.5 0 0 130.6951 203.0731
  A 4.64 4.33 101.5 0 0 125.5269 206.7567
  A 4.64 4.33 101.5 0 0 128.8449 212.1669"
/>
<path stroke="#d0d482" vector-effect="non-scaling-stroke" d="
  M 76.9299 226.6978
  A 4.84 4.29 101.2 0 0 82.0783 222.7833
  A 4.84 4.29 101.2 0 0 78.8101 217.2022
  A 4.84 4.29 101.2 0 0 73.6617 221.1167
  A 4.84 4.29 101.2 0 0 76.9299 226.6978"
/>
<path stroke="#a5e785" vector-effect="non-scaling-stroke" d="
  M 354.5204 231.6090
  A 5.23 4.55 88.9 0 0 358.9692 226.2927
  A 5.23 4.55 88.9 0 0 354.3196 221.1510
  A 5.23 4.55 88.9 0 0 349.8708 226.4673
  A 5.23 4.55 88.9 0 0 354.5204 231.6090"
/>
<path stroke="#b8e687" vector-effect="non-scaling-stroke" d="
  M 421.35 227.85
  A 4.76 4.76 0.0 0 0 416.59 223.09
  A 4.76 4.76 0.0 0 0 411.83 227.85
  A 4.76 4.76 0.0 0 0 416.59 232.61
  A 4.76 4.76 0.0 0 0 421.35 227.85"
/>
<path stroke="#a5e785" vector-effect="non-scaling-stroke" d="
  M 386.04 232.58
  A 4.75 4.75 0.0 0 0 381.29 227.83
  A 4.75 4.75 0.0 0 0 376.54 232.58
  A 4.75 4.75 0.0 0 0 381.29 237.33
  A 4.75 4.75 0.0 0 0 386.04 232.58"
/>
<path stroke="#b8e687" vector-effect="non-scaling-stroke" d="
  M 312.08 243.95
  Q 314.95 239.41 320.00 240.75
  C 328.64 243.05 331.50 251.01 342.16 249.95
  A 1.53 1.49 -31.6 0 1 343.05 250.15
  C 351.92 255.30 354.49 241.54 346.56 242.17
  C 342.86 242.46 341.48 245.46 336.98 242.82
  C 328.44 237.80 320.45 230.08 310.18 236.13
  C 304.35 239.56 301.86 250.83 311.56 251.60
  Q 313.08 251.72 312.82 250.21
  L 311.90 244.81
  Q 311.82 244.34 312.08 243.95"
/>
<path stroke="#d0d482" vector-effect="non-scaling-stroke" d="
  M 226.30 270.06
  L 222.46 277.38
  Q 222.09 278.09 222.82 277.76
  C 236.24 271.57 240.16 265.23 243.81 251.54
  A 0.97 0.94 -0.8 0 1 244.47 250.88
  C 252.74 248.60 250.13 235.63 242.01 239.39
  C 239.07 240.74 240.53 243.57 240.46 246.00
  Q 240.44 246.62 239.82 246.54
  C 233.48 245.78 234.03 254.93 230.69 258.64
  C 226.53 263.26 220.17 263.30 214.02 262.37
  Q 193.81 259.31 175.42 268.46
  Q 172.12 270.10 171.18 271.47
  Q 165.14 280.29 155.44 284.64
  C 151.85 286.24 145.31 278.46 141.57 278.35
  C 135.80 278.18 132.12 288.07 125.22 283.79
  C 121.22 281.31 116.04 286.02 118.68 290.38
  C 121.15 294.45 125.59 292.09 127.04 288.59
  Q 127.24 288.10 127.76 288.18
  C 131.68 288.78 137.92 283.97 140.83 281.62
  A 0.94 0.93 -43.2 0 1 142.05 281.65
  C 145.01 284.33 150.20 288.76 154.20 289.75
  Q 154.70 289.88 155.17 289.65
  C 161.84 286.45 169.49 282.16 173.81 275.98
  Q 175.25 273.94 175.40 276.43
  Q 175.43 276.97 175.53 277.90
  C 176.09 283.23 181.20 283.12 183.47 279.00
  Q 183.74 278.50 183.49 277.98
  L 182.42 275.76
  Q 182.26 275.43 182.49 275.15
  C 187.32 269.35 203.28 268.53 210.32 269.17
  Q 217.17 269.78 226.13 269.77
  Q 226.45 269.77 226.30 270.06"
/>
<path stroke="#b8e687" vector-effect="non-scaling-stroke" d="
  M 418.2332 255.9994
  A 4.89 4.41 90.9 0 0 422.7195 251.1793
  A 4.89 4.41 90.9 0 0 418.3868 246.2206
  A 4.89 4.41 90.9 0 0 413.9005 251.0407
  A 4.89 4.41 90.9 0 0 418.2332 255.9994"
/>
<path stroke="#ded583" vector-effect="non-scaling-stroke" d="
  M 153.7416 269.5722
  A 4.80 4.29 82.8 0 0 157.3962 264.2723
  A 4.80 4.29 82.8 0 0 152.5384 260.0478
  A 4.80 4.29 82.8 0 0 148.8838 265.3477
  A 4.80 4.29 82.8 0 0 153.7416 269.5722"
/>
<path stroke="#b8e687" vector-effect="non-scaling-stroke" d="
  M 388.0425 276.9247
  A 4.94 4.63 108.5 0 0 394.0007 273.7091
  A 4.94 4.63 108.5 0 0 391.1775 267.5553
  A 4.94 4.63 108.5 0 0 385.2193 270.7709
  A 4.94 4.63 108.5 0 0 388.0425 276.9247"
/>
<path stroke="#ded583" vector-effect="non-scaling-stroke" d="
  M 142.46 273.44
  A 4.65 4.65 0.0 0 0 137.81 268.79
  A 4.65 4.65 0.0 0 0 133.16 273.44
  A 4.65 4.65 0.0 0 0 137.81 278.09
  A 4.65 4.65 0.0 0 0 142.46 273.44"
/>
<path stroke="#b8e687" vector-effect="non-scaling-stroke" d="
  M 183.52 395.30
  C 182.36 401.68 190.65 400.48 193.24 403.12
  A 1.56 1.56 0.0 0 1 192.69 405.66
  Q 188.65 407.22 186.74 403.48
  Q 186.50 403.00 185.96 403.00
  L 183.43 403.00
  Q 182.75 403.00 182.85 403.68
  C 184.13 412.19 199.76 410.54 197.71 402.51
  C 196.77 398.83 192.02 397.84 188.68 397.35
  A 1.46 1.46 0.0 0 1 188.17 394.65
  Q 190.13 393.52 192.13 394.27
  A 1.17 1.15 -0.4 0 1 192.79 394.91
  Q 193.81 397.36 196.76 396.37
  Q 197.26 396.21 197.21 395.68
  C 196.64 389.26 184.67 389.01 183.52 395.30"
/>
<path stroke="#b8e687" vector-effect="non-scaling-stroke" d="
  M 223.72 399.96
  A 9.22 9.22 0.0 0 0 214.50 390.74
  A 9.22 9.22 0.0 0 0 205.28 399.96
  A 9.22 9.22 0.0 0 0 214.50 409.18
  A 9.22 9.22 0.0 0 0 223.72 399.96"
/>
<path stroke="#b8e687" vector-effect="non-scaling-stroke" d="
  M 253.68 394.50
  A 0.32 0.32 0.0 0 1 254.00 394.82
  L 254.00 408.68
  A 0.32 0.32 0.0 0 0 254.32 409.00
  L 257.68 409.00
  A 0.32 0.32 0.0 0 0 258.00 408.68
  L 258.00 394.82
  A 0.32 0.32 0.0 0 1 258.32 394.50
  L 262.93 394.50
  A 0.32 0.32 0.0 0 0 263.25 394.18
  L 263.25 391.26
  A 0.32 0.32 0.0 0 0 262.93 390.94
  L 249.32 391.00
  A 0.32 0.32 0.0 0 0 249.00 391.32
  L 249.00 394.18
  A 0.32 0.32 0.0 0 0 249.32 394.50
  L 253.68 394.50"
/>
<path stroke="#b8e687" vector-effect="non-scaling-stroke" d="
  M 280.66 397.00
  A 0.25 0.24 -44.8 0 1 281.13 397.00
  L 284.50 408.54
  A 0.63 0.62 -8.0 0 0 285.10 408.99
  L 288.96 409.01
  Q 289.44 409.01 289.52 408.54
  L 292.75 391.69
  Q 292.89 391.00 292.19 391.00
  L 289.00 391.00
  Q 288.50 391.00 288.42 391.49
  L 286.68 401.97
  A 0.34 0.34 0.0 0 1 286.02 402.01
  L 283.32 392.49
  A 2.51 2.51 0.0 0 0 278.50 392.49
  L 275.72 402.22
  A 0.29 0.29 0.0 0 1 275.15 402.19
  L 273.41 391.44
  A 0.73 0.72 83.1 0 0 272.64 390.83
  L 269.42 391.07
  Q 268.94 391.10 269.03 391.58
  L 272.22 408.42
  Q 272.33 409.00 272.92 409.00
  L 276.75 409.00
  Q 277.20 409.00 277.32 408.57
  L 280.66 397.00"
/>
<path stroke="#b8e687" vector-effect="non-scaling-stroke" d="
  M 317.97 399.95
  A 9.22 9.22 0.0 0 0 308.75 390.73
  A 9.22 9.22 0.0 0 0 299.53 399.95
  A 9.22 9.22 0.0 0 0 308.75 409.17
  A 9.22 9.22 0.0 0 0 317.97 399.95"
/>
<path stroke="#b8e687" vector-effect="non-scaling-stroke" d="
  M 350.37 398.26
  A 0.34 0.34 0.0 0 1 349.75 398.06
  L 349.75 391.19
  A 0.34 0.34 0.0 0 0 349.39 390.85
  L 346.07 391.08
  A 0.34 0.34 0.0 0 0 345.75 391.42
  L 345.75 408.66
  A 0.34 0.34 0.0 0 0 346.09 409.00
  L 349.48 409.00
  A 0.34 0.34 0.0 0 0 349.82 408.66
  L 349.72 401.72
  A 0.34 0.34 0.0 0 1 350.34 401.52
  L 355.42 408.85
  A 0.34 0.34 0.0 0 0 355.70 409.00
  L 360.28 409.00
  A 0.34 0.34 0.0 0 0 360.55 408.45
  L 353.91 400.13
  A 0.34 0.34 0.0 0 1 353.90 399.71
  L 360.20 391.55
  A 0.34 0.34 0.0 0 0 359.93 391.00
  L 355.69 391.00
  A 0.34 0.34 0.0 0 0 355.41 391.14
  L 350.37 398.26"
/>
<path stroke="#b8e687" vector-effect="non-scaling-stroke" d="
  M 371.83 395.00
  Q 373.70 393.43 376.06 394.24
  A 1.14 1.12 -2.3 0 1 376.75 394.87
  Q 377.81 397.37 380.77 396.37
  Q 381.22 396.22 381.20 395.75
  C 380.85 386.41 361.50 391.77 368.72 399.26
  C 370.42 401.02 374.20 401.67 376.78 402.52
  A 1.60 1.59 -48.3 0 1 376.95 405.48
  Q 372.77 407.43 370.74 403.47
  Q 370.49 402.99 369.95 402.99
  L 367.12 403.02
  A 0.51 0.51 0.0 0 0 366.64 403.69
  C 370.22 414.00 385.72 408.40 381.27 401.27
  C 379.70 398.74 375.18 397.80 372.32 397.10
  A 1.21 1.21 0.0 0 1 371.83 395.00"
/>
<path stroke="#d0d482" vector-effect="non-scaling-stroke" d="
  M 142.22 391.57
  L 142.20 408.35
  A 0.63 0.63 0.0 0 0 142.82 408.98
  L 147.51 408.99
  A 9.20 8.87 0.1 0 0 156.73 400.13
  L 156.73 399.83
  A 9.20 8.87 0.1 0 0 147.55 390.95
  L 142.86 390.94
  A 0.63 0.63 0.0 0 0 142.22 391.57"
/>
<path stroke="#d0d482" vector-effect="non-scaling-stroke" d="
  M 174.51 398.69
  C 175.33 397.74 175.77 397.08 175.81 395.80
  C 176.00 390.06 169.55 390.88 164.95 391.06
  Q 164.50 391.08 164.50 391.52
  L 164.50 408.46
  Q 164.50 409.17 165.22 409.14
  L 174.63 408.65
  A 0.92 0.89 18.4 0 0 175.27 408.34
  Q 179.79 403.05 174.63 399.57
  Q 174.08 399.20 174.51 398.69"
/>
<path stroke="#b8e687" vector-effect="non-scaling-stroke" d="
  M 236.01 398.16
  A 0.37 0.37 0.0 0 1 235.62 397.79
  L 235.63 394.87
  A 0.37 0.37 0.0 0 1 236.00 394.50
  L 241.64 394.50
  A 0.37 0.37 0.0 0 0 242.01 394.13
  L 242.01 391.37
  A 0.37 0.37 0.0 0 0 241.64 391.00
  L 231.87 391.00
  A 0.37 0.37 0.0 0 0 231.50 391.37
  L 231.50 408.63
  A 0.37 0.37 0.0 0 0 231.87 409.00
  L 235.23 409.00
  A 0.37 0.37 0.0 0 0 235.60 408.63
  L 235.55 402.12
  A 0.37 0.37 0.0 0 1 235.92 401.75
  L 241.37 401.75
  A 0.37 0.37 0.0 0 0 241.74 401.39
  L 241.78 398.30
  A 0.37 0.37 0.0 0 0 241.40 397.93
  L 236.01 398.16"
/>
<path stroke="#b8e687" vector-effect="non-scaling-stroke" d="
  M 329.75 403.72
  A 0.44 0.44 0.0 0 1 330.56 403.48
  L 333.90 408.56
  A 0.98 0.98 0.0 0 0 334.72 409.00
  L 338.22 409.00
  A 0.52 0.52 0.0 0 0 338.63 408.15
  L 334.51 402.97
  Q 334.12 402.49 334.67 402.20
  C 339.67 399.63 339.15 391.63 332.99 391.10
  Q 329.70 390.81 326.36 391.06
  Q 325.75 391.11 325.75 391.72
  L 325.75 408.38
  Q 325.75 409.00 326.38 409.00
  L 329.12 409.00
  Q 329.75 409.00 329.75 408.37
  L 329.75 403.72"
/>
<path stroke="#b8e687" vector-effect="non-scaling-stroke" d="
  M 219.63 399.93
  A 5.13 5.13 0.0 0 0 214.50 394.80
  A 5.13 5.13 0.0 0 0 209.37 399.93
  A 5.13 5.13 0.0 0 0 214.50 405.06
  A 5.13 5.13 0.0 0 0 219.63 399.93"
/>
<path stroke="#b8e687" vector-effect="non-scaling-stroke" d="
  M 313.87 399.93
  A 5.12 5.12 0.0 0 0 308.75 394.81
  A 5.12 5.12 0.0 0 0 303.63 399.93
  A 5.12 5.12 0.0 0 0 308.75 405.05
  A 5.12 5.12 0.0 0 0 313.87 399.93"
/>
<path stroke="#d0d482" vector-effect="non-scaling-stroke" d="
  M 146.20 395.21
  L 146.26 404.63
  A 0.66 0.66 0.0 0 0 146.93 405.29
  L 147.19 405.29
  A 5.36 5.15 -0.4 0 0 152.51 400.10
  L 152.51 399.66
  A 5.36 5.15 -0.4 0 0 147.11 394.55
  L 146.85 394.55
  A 0.66 0.66 0.0 0 0 146.20 395.21"
/>
<path stroke="#d0d482" vector-effect="non-scaling-stroke" d="
  M 168.50 394.77
  L 168.71 397.62
  A 0.72 0.72 0.0 0 0 169.49 398.28
  L 169.60 398.27
  A 2.59 2.02 -4.4 0 0 172.02 396.06
  L 172.00 395.80
  A 2.59 2.02 -4.4 0 0 169.27 393.98
  L 169.16 393.99
  A 0.72 0.72 0.0 0 0 168.50 394.77"
/>
<path stroke="#d0d482" vector-effect="non-scaling-stroke" d="
  M 168.55 402.04
  L 168.51 405.16
  A 0.58 0.58 0.0 0 0 169.08 405.75
  L 170.65 405.77
  A 2.57 2.00 0.7 0 0 173.25 403.80
  L 173.25 403.52
  A 2.57 2.00 0.7 0 0 170.71 401.49
  L 169.14 401.47
  A 0.58 0.58 0.0 0 0 168.55 402.04"
/>
<path stroke="#b8e687" vector-effect="non-scaling-stroke" d="
  M 329.78 394.81
  L 329.76 398.45
  A 0.81 0.81 0.0 0 0 330.57 399.26
  L 331.54 399.27
  A 2.70 2.43 0.2 0 0 334.25 396.85
  L 334.25 396.45
  A 2.70 2.43 0.2 0 0 331.56 394.01
  L 330.59 394.01
  A 0.81 0.81 0.0 0 0 329.78 394.81"
/>
</g>
<path fill="#fefffe" d="
  M 0.00 0.00
  L 500.00 0.00
  L 500.00 500.00
  L 0.00 500.00
  L 0.00 0.00
  Z
  M 290.83 43.14
  A 4.72 4.72 0.0 0 0 286.11 38.42
  A 4.72 4.72 0.0 0 0 281.39 43.14
  A 4.72 4.72 0.0 0 0 286.11 47.86
  A 4.72 4.72 0.0 0 0 290.83 43.14
  Z
  M 223.08 63.19
  A 4.66 4.66 0.0 0 0 218.42 58.53
  A 4.66 4.66 0.0 0 0 213.76 63.19
  A 4.66 4.66 0.0 0 0 218.42 67.85
  A 4.66 4.66 0.0 0 0 223.08 63.19
  Z
  M 265.23 64.10
  A 4.72 4.72 0.0 0 0 260.51 59.38
  A 4.72 4.72 0.0 0 0 255.79 64.10
  A 4.72 4.72 0.0 0 0 260.51 68.82
  A 4.72 4.72 0.0 0 0 265.23 64.10
  Z
  M 290.73 72.45
  A 4.77 4.77 0.0 0 0 285.96 67.68
  A 4.77 4.77 0.0 0 0 281.19 72.45
  A 4.77 4.77 0.0 0 0 285.96 77.22
  A 4.77 4.77 0.0 0 0 290.73 72.45
  Z
  M 319.65 75.59
  A 4.72 4.72 0.0 0 0 314.93 70.87
  A 4.72 4.72 0.0 0 0 310.21 75.59
  A 4.72 4.72 0.0 0 0 314.93 80.31
  A 4.72 4.72 0.0 0 0 319.65 75.59
  Z
  M 163.58 81.18
  A 4.77 4.77 0.0 0 0 158.81 76.41
  A 4.77 4.77 0.0 0 0 154.04 81.18
  A 4.77 4.77 0.0 0 0 158.81 85.95
  A 4.77 4.77 0.0 0 0 163.58 81.18
  Z
  M 237.52 89.65
  L 235.46 92.17
  A 1.10 1.09 16.3 0 1 234.74 92.56
  C 215.33 94.60 236.37 107.84 236.51 115.00
  C 236.68 123.89 232.77 131.72 232.04 140.79
  Q 227.09 141.96 227.92 146.62
  C 229.26 154.06 242.74 149.87 236.05 140.78
  Q 238.59 133.03 245.13 128.43
  C 249.37 125.45 257.76 120.26 256.61 114.13
  Q 256.52 113.62 256.75 113.15
  L 257.84 110.97
  Q 258.08 110.50 257.90 110.00
  C 255.42 103.32 245.31 105.92 249.23 114.02
  Q 249.42 114.42 249.84 114.56
  L 250.70 114.84
  Q 251.41 115.07 251.07 115.74
  Q 247.82 122.05 241.61 125.41
  Q 240.99 125.75 241.00 125.04
  C 241.08 119.93 242.13 114.66 239.61 109.78
  C 238.27 107.19 235.59 104.63 233.57 102.04
  A 0.68 0.68 0.0 0 1 233.55 101.21
  L 236.86 96.65
  A 0.98 0.97 58.1 0 0 237.03 95.89
  Q 236.65 93.92 237.93 92.48
  A 1.24 1.23 63.6 0 0 238.24 91.54
  L 238.06 89.55
  Q 241.27 91.95 243.79 90.08
  C 248.69 86.44 242.38 78.58 237.84 83.32
  C 236.15 85.08 236.61 87.62 237.52 89.65
  Z
  M 211.24 150.03
  C 209.36 143.92 204.80 130.21 199.01 127.07
  C 190.62 122.53 189.36 111.87 190.21 103.44
  Q 190.27 102.93 190.75 102.77
  C 195.26 101.27 194.40 94.81 189.51 94.29
  C 183.59 93.66 182.08 100.30 186.17 103.02
  Q 186.59 103.30 186.53 103.80
  Q 185.30 114.83 189.41 125.02
  C 191.33 129.76 196.88 131.18 199.44 136.03
  Q 204.42 145.46 209.53 154.84
  Q 212.34 160.01 213.32 164.23
  C 214.74 170.25 214.41 176.62 216.35 182.48
  Q 216.51 182.95 216.17 183.31
  C 212.82 186.86 217.54 195.91 222.80 192.08
  C 225.81 189.88 224.63 185.43 221.98 183.11
  Q 221.60 182.78 221.59 182.27
  Q 221.49 161.95 216.24 138.00
  Q 214.12 128.32 213.70 113.57
  Q 213.69 113.12 214.07 112.88
  C 217.63 110.57 216.89 106.90 213.85 104.51
  A 0.83 0.82 19.3 0 1 213.53 103.86
  L 213.44 93.44
  Q 213.43 92.98 213.90 92.94
  Q 217.57 92.61 217.97 89.26
  C 218.76 82.65 208.00 80.99 208.52 89.24
  Q 208.64 91.13 210.19 92.18
  Q 210.53 92.41 210.48 92.82
  L 209.15 103.72
  Q 209.09 104.25 208.65 104.55
  Q 204.51 107.37 207.24 111.51
  Q 207.51 111.91 207.89 112.20
  L 209.02 113.05
  Q 209.46 113.38 209.32 113.90
  C 206.26 125.13 210.53 139.23 211.57 149.97
  A 0.17 0.17 0.0 0 1 211.24 150.03
  Z
  M 292.3301 96.8835
  A 5.25 4.84 104.9 0 0 298.3573 93.0545
  A 5.25 4.84 104.9 0 0 295.0299 86.7365
  A 5.25 4.84 104.9 0 0 289.0027 90.5655
  A 5.25 4.84 104.9 0 0 292.3301 96.8835
  Z
  M 320.64 88.74
  Q 317.59 93.24 321.51 96.22
  Q 321.84 96.48 321.84 96.89
  C 321.72 108.47 321.99 119.29 317.37 130.19
  Q 315.46 134.69 313.65 138.99
  A 0.13 0.13 0.0 0 0 313.87 139.13
  C 325.27 126.43 325.13 114.21 325.26 97.03
  Q 325.26 96.51 325.66 96.19
  C 330.48 92.29 326.51 84.23 320.88 88.49
  A 0.82 0.76 -3.2 0 0 320.64 88.74
  Z
  M 246.96 147.76
  Q 238.55 159.94 241.22 173.50
  C 242.19 178.47 244.60 181.28 249.98 179.31
  Q 250.44 179.15 250.29 178.68
  C 247.22 169.20 246.61 159.13 252.16 150.51
  Q 255.34 147.21 259.12 144.61
  C 263.03 141.92 264.49 138.08 265.68 133.68
  C 268.85 121.92 273.64 111.52 272.65 97.53
  Q 272.61 97.02 273.04 96.72
  Q 276.61 94.29 274.79 90.50
  C 272.09 84.89 264.85 88.75 266.64 94.78
  A 0.75 0.74 7.9 0 0 266.96 95.20
  L 269.02 96.46
  Q 269.46 96.72 269.47 97.24
  C 269.76 109.21 265.75 119.58 261.28 131.76
  C 259.22 137.37 251.08 143.29 246.96 147.76
  Z
  M 323.92 152.08
  Q 321.99 154.14 320.98 156.90
  Q 320.82 157.35 320.35 157.39
  C 308.06 158.52 294.93 162.05 287.52 172.90
  C 281.14 182.25 295.25 187.08 297.00 177.65
  C 298.87 167.55 313.22 164.89 321.12 162.08
  Q 321.58 161.92 321.97 162.20
  C 327.89 166.48 331.38 158.38 327.06 153.22
  Q 336.75 140.06 339.22 124.88
  Q 339.30 124.42 339.75 124.29
  L 342.22 123.56
  A 0.71 0.70 -5.0 0 0 342.73 122.96
  C 343.04 119.99 343.04 117.27 343.79 114.38
  Q 345.21 108.91 345.92 103.21
  Q 345.99 102.66 346.53 102.72
  C 351.70 103.30 351.84 95.79 348.17 94.11
  C 343.36 91.92 338.79 98.06 342.83 101.97
  A 0.93 0.92 -63.8 0 1 343.10 102.77
  L 341.02 115.49
  Q 340.94 115.99 340.44 115.90
  C 334.28 114.77 331.95 118.60 335.12 123.72
  Q 335.38 124.16 335.30 124.66
  C 333.71 134.50 328.97 143.56 323.92 152.08
  Z
  M 376.12 106.81
  A 4.58 4.58 0.0 0 0 371.54 102.23
  A 4.58 4.58 0.0 0 0 366.96 106.81
  A 4.58 4.58 0.0 0 0 371.54 111.39
  A 4.58 4.58 0.0 0 0 376.12 106.81
  Z
  M 307.39 110.83
  A 4.61 4.61 0.0 0 0 302.78 106.22
  A 4.61 4.61 0.0 0 0 298.17 110.83
  A 4.61 4.61 0.0 0 0 302.78 115.44
  A 4.61 4.61 0.0 0 0 307.39 110.83
  Z
  M 151.6400 120.4197
  A 4.77 4.47 90.6 0 0 156.1598 115.6968
  A 4.77 4.47 90.6 0 0 151.7400 110.8803
  A 4.77 4.47 90.6 0 0 147.2202 115.6032
  A 4.77 4.47 90.6 0 0 151.6400 120.4197
  Z
  M 174.72 123.26
  A 4.78 4.78 0.0 0 0 169.94 118.48
  A 4.78 4.78 0.0 0 0 165.16 123.26
  A 4.78 4.78 0.0 0 0 169.94 128.04
  A 4.78 4.78 0.0 0 0 174.72 123.26
  Z
  M 285.2476 130.2573
  A 4.98 4.34 80.2 0 0 288.6767 124.6113
  A 4.98 4.34 80.2 0 0 283.5524 120.4427
  A 4.98 4.34 80.2 0 0 280.1233 126.0887
  A 4.98 4.34 80.2 0 0 285.2476 130.2573
  Z
  M 358.71 135.10
  C 358.18 140.42 357.88 146.01 355.63 151.03
  C 352.28 158.48 349.20 168.87 340.48 172.26
  C 329.50 176.51 316.81 179.21 310.69 190.41
  C 309.83 191.99 308.93 194.62 307.92 196.66
  Q 307.66 197.17 307.12 197.01
  C 296.52 193.96 286.20 190.43 278.03 200.19
  Q 275.41 203.32 274.70 205.43
  C 273.45 209.12 275.46 215.39 280.54 214.12
  C 287.42 212.41 281.19 206.56 285.58 203.35
  C 294.88 196.55 307.36 207.96 313.91 201.57
  C 316.28 199.25 315.97 194.44 317.83 191.49
  C 321.96 184.92 333.37 181.29 341.09 179.41
  C 350.71 177.05 357.50 159.25 359.40 150.66
  Q 359.52 150.08 360.10 150.21
  C 364.67 151.19 364.85 146.65 364.77 142.91
  Q 364.75 141.63 364.26 141.25
  Q 363.54 140.67 362.07 141.44
  Q 360.54 142.24 361.05 140.60
  Q 361.82 138.10 361.27 134.80
  Q 366.42 129.51 361.96 125.99
  C 356.53 121.71 350.92 131.12 358.71 135.10
  Z
  M 403.51 132.52
  A 4.60 4.60 0.0 0 0 398.91 127.92
  A 4.60 4.60 0.0 0 0 394.31 132.52
  A 4.60 4.60 0.0 0 0 398.91 137.12
  A 4.60 4.60 0.0 0 0 403.51 132.52
  Z
  M 124.81 136.29
  A 4.73 4.73 0.0 0 0 120.08 131.56
  A 4.73 4.73 0.0 0 0 115.35 136.29
  A 4.73 4.73 0.0 0 0 120.08 141.02
  A 4.73 4.73 0.0 0 0 124.81 136.29
  Z
  M 304.12 140.75
  C 295.15 143.41 285.93 146.52 278.82 152.30
  Q 263.06 165.12 258.23 185.15
  C 256.65 191.70 257.33 199.46 257.00 206.55
  C 256.71 212.82 251.43 213.45 246.50 213.50
  A 0.66 0.66 0.0 0 1 245.83 212.88
  C 245.53 208.13 245.61 192.66 237.57 193.09
  C 232.81 193.35 232.01 199.93 236.70 201.40
  Q 237.21 201.56 237.26 202.09
  L 238.64 214.95
  C 234.79 214.87 228.73 211.31 224.89 209.96
  C 217.09 207.23 211.01 206.81 203.56 209.41
  Q 203.02 209.60 202.96 209.03
  C 202.05 201.21 197.93 191.50 190.34 187.95
  C 185.83 185.85 178.34 187.04 177.04 180.75
  C 176.40 177.70 176.55 173.21 175.50 169.91
  Q 171.75 158.10 159.08 155.99
  C 157.55 155.73 157.09 155.20 156.23 154.05
  C 152.43 149.01 145.66 153.05 148.46 159.06
  C 150.40 163.20 154.64 161.11 156.15 157.92
  Q 156.37 157.45 156.81 157.73
  Q 159.11 159.21 161.43 160.63
  C 169.19 165.40 169.43 172.33 170.98 180.10
  C 173.51 192.74 183.52 188.69 190.16 195.91
  Q 195.51 201.73 196.08 210.01
  C 196.33 213.71 196.43 217.98 200.40 219.69
  Q 200.90 219.90 201.36 219.63
  Q 212.30 213.19 222.87 219.39
  C 226.43 221.48 229.75 223.57 228.19 227.97
  Q 226.06 233.98 218.49 236.54
  C 198.85 243.18 178.22 226.55 166.64 211.34
  Q 162.04 205.30 160.12 203.84
  C 153.65 198.92 146.32 199.57 139.12 197.51
  Q 131.44 195.32 124.71 190.87
  Q 124.29 190.59 124.15 190.11
  C 122.09 183.00 113.60 184.15 114.28 190.51
  Q 114.89 196.25 120.72 195.00
  A 0.69 0.69 0.0 0 0 121.14 194.74
  L 122.12 193.45
  Q 122.53 192.91 123.03 193.36
  C 129.67 199.29 135.31 201.24 143.91 203.27
  C 157.57 206.50 163.56 218.72 173.17 227.75
  A 0.89 0.88 -49.5 0 1 173.26 228.94
  Q 170.20 232.89 165.21 232.67
  C 162.08 232.54 161.61 231.07 160.47 228.58
  C 157.28 221.66 146.87 229.09 153.59 233.92
  Q 156.08 235.71 158.46 233.50
  Q 158.87 233.12 159.27 233.51
  C 164.67 238.68 172.77 239.12 177.68 232.76
  A 0.63 0.62 -51.0 0 1 178.57 232.66
  Q 188.64 241.07 201.50 243.84
  Q 202.44 244.04 201.52 244.31
  L 185.38 249.06
  C 174.52 251.53 162.29 253.14 153.58 244.78
  C 148.10 239.52 147.71 230.51 138.49 229.71
  Q 126.16 228.63 119.31 227.18
  A 1.52 1.51 -13.6 0 1 118.44 226.65
  C 116.88 224.74 114.54 220.95 111.64 221.82
  C 103.28 224.33 111.22 235.94 114.83 229.60
  A 1.11 1.10 32.0 0 1 116.42 229.24
  C 123.61 234.26 131.18 233.77 139.55 234.07
  A 2.19 2.18 -10.3 0 1 141.49 235.41
  L 145.31 244.70
  Q 145.55 245.29 145.23 245.83
  C 140.29 254.23 120.49 248.97 113.91 245.70
  Q 113.42 245.46 113.23 244.96
  C 112.67 243.49 112.13 242.04 110.99 241.09
  C 107.85 238.47 101.69 241.33 103.49 246.01
  Q 104.78 249.35 108.43 249.55
  Q 108.84 249.57 109.17 249.34
  L 111.27 247.92
  Q 111.78 247.57 112.29 247.92
  C 121.64 254.23 140.58 259.69 149.44 249.06
  Q 149.78 248.66 150.14 249.03
  C 160.64 259.73 173.56 258.01 186.93 254.24
  Q 211.60 248.17 219.93 245.41
  C 231.14 241.69 239.05 234.03 236.85 221.23
  C 247.15 222.26 257.88 223.45 257.16 235.87
  Q 257.13 236.40 257.66 236.33
  C 266.25 235.19 266.95 225.07 261.18 219.85
  Q 260.74 219.45 261.27 219.16
  Q 267.72 215.69 267.54 208.26
  C 267.05 188.50 268.99 170.90 284.83 157.39
  C 291.24 151.92 299.40 149.14 305.81 143.20
  Q 309.04 140.31 309.79 139.32
  C 314.02 133.71 306.35 129.57 303.20 132.67
  Q 299.68 136.16 304.12 140.75
  Z
  M 194.89 174.45
  C 199.44 177.92 199.92 182.55 200.48 188.19
  Q 200.54 188.80 201.15 188.72
  L 206.57 188.05
  Q 207.19 187.98 207.14 187.35
  C 206.28 176.33 202.84 167.15 191.21 163.97
  C 181.52 161.33 180.41 155.04 177.93 146.72
  A 1.44 1.44 0.0 0 1 177.99 145.76
  C 181.96 136.49 169.81 133.59 168.69 140.79
  Q 168.03 145.07 172.68 146.45
  Q 173.15 146.59 173.22 147.08
  C 174.56 157.42 176.34 164.58 187.18 168.19
  Q 187.80 168.39 187.58 169.01
  Q 186.44 172.14 187.60 175.25
  A 1.14 1.12 2.8 0 0 188.20 175.90
  Q 191.63 177.45 194.04 174.54
  Q 194.42 174.09 194.89 174.45
  Z
  M 143.29 143.87
  A 4.82 4.82 0.0 0 0 138.47 139.05
  A 4.82 4.82 0.0 0 0 133.65 143.87
  A 4.82 4.82 0.0 0 0 138.47 148.69
  A 4.82 4.82 0.0 0 0 143.29 143.87
  Z
  M 383.76 157.66
  A 4.68 4.68 0.0 0 0 379.08 152.98
  A 4.68 4.68 0.0 0 0 374.40 157.66
  A 4.68 4.68 0.0 0 0 379.08 162.34
  A 4.68 4.68 0.0 0 0 383.76 157.66
  Z
  M 99.93 161.37
  A 4.83 4.83 0.0 0 0 95.10 156.54
  A 4.83 4.83 0.0 0 0 90.27 161.37
  A 4.83 4.83 0.0 0 0 95.10 166.20
  A 4.83 4.83 0.0 0 0 99.93 161.37
  Z
  M 168.55 199.54
  C 169.31 204.74 176.63 206.60 177.62 200.15
  Q 178.23 196.11 173.91 194.22
  A 1.21 1.20 46.7 0 0 172.98 194.19
  C 165.49 197.05 160.64 185.86 158.68 180.57
  C 157.39 177.10 155.18 174.57 151.95 173.50
  Q 141.56 170.05 134.65 165.95
  Q 134.20 165.68 134.29 165.17
  C 134.58 163.59 135.75 161.55 134.41 160.11
  C 129.97 155.33 122.50 161.56 127.20 167.07
  Q 128.69 168.82 130.71 167.86
  A 0.80 0.79 52.0 0 1 131.55 167.97
  Q 139.31 174.58 149.20 176.93
  C 151.24 177.42 152.88 178.18 153.28 180.24
  C 154.58 187.04 160.08 198.76 167.97 199.02
  Q 168.48 199.03 168.55 199.54
  Z
  M 407.58 166.42
  A 4.62 4.62 0.0 0 0 402.96 161.80
  A 4.62 4.62 0.0 0 0 398.34 166.42
  A 4.62 4.62 0.0 0 0 402.96 171.04
  A 4.62 4.62 0.0 0 0 407.58 166.42
  Z
  M 375.54 179.83
  C 370.90 186.19 360.65 196.35 351.82 194.40
  Q 348.98 193.78 341.07 191.15
  C 332.21 188.19 325.92 196.56 326.61 204.75
  C 327.07 210.32 335.71 211.70 335.19 204.99
  Q 335.01 202.57 332.75 200.94
  A 0.58 0.58 0.0 0 1 332.68 200.06
  Q 337.57 195.17 344.57 197.43
  C 351.30 199.60 356.26 202.03 363.21 198.16
  Q 367.52 195.75 374.59 188.38
  Q 375.01 187.95 375.46 188.35
  C 381.16 193.34 386.28 184.42 379.76 180.37
  Q 379.28 180.07 379.73 179.72
  C 383.05 177.17 383.05 170.60 378.03 170.74
  C 373.24 170.87 370.49 176.88 375.32 179.01
  Q 375.94 179.28 375.54 179.83
  Z
  M 87.51 183.97
  A 4.63 4.63 0.0 0 0 82.88 179.34
  A 4.63 4.63 0.0 0 0 78.25 183.97
  A 4.63 4.63 0.0 0 0 82.88 188.60
  A 4.63 4.63 0.0 0 0 87.51 183.97
  Z
  M 412.12 194.90
  A 4.51 4.51 0.0 0 0 407.61 190.39
  A 4.51 4.51 0.0 0 0 403.10 194.90
  A 4.51 4.51 0.0 0 0 407.61 199.41
  A 4.51 4.51 0.0 0 0 412.12 194.90
  Z
  M 102.5154 207.7875
  A 4.76 4.50 83.3 0 0 106.4293 202.5350
  A 4.76 4.50 83.3 0 0 101.4046 198.3325
  A 4.76 4.50 83.3 0 0 97.4907 203.5850
  A 4.76 4.50 83.3 0 0 102.5154 207.7875
  Z
  M 378.82 210.54
  C 366.49 210.43 353.49 208.89 342.06 214.04
  C 334.40 217.49 328.68 219.61 320.06 219.55
  Q 312.25 219.49 308.33 218.99
  C 290.58 216.71 279.20 225.49 272.89 241.32
  C 266.08 258.40 253.68 270.65 242.25 284.25
  Q 239.38 287.67 237.47 290.70
  C 227.17 305.60 222.07 323.46 228.02 340.98
  C 233.99 360.17 251.66 370.96 270.95 372.60
  Q 282.32 373.56 293.84 373.64
  Q 294.53 373.65 294.55 372.96
  L 294.82 364.84
  A 0.95 0.95 0.0 0 0 293.91 363.86
  C 275.47 363.14 256.84 356.75 245.94 340.94
  Q 240.55 332.72 240.90 323.45
  Q 240.93 322.79 241.37 323.29
  C 251.24 334.42 265.46 337.21 279.68 334.30
  Q 280.17 334.20 280.58 334.49
  C 285.95 338.36 293.25 336.25 299.32 335.68
  C 307.06 334.96 314.04 336.60 321.30 338.65
  Q 321.80 338.79 321.93 339.30
  C 325.89 355.73 341.03 333.07 322.49 335.85
  A 1.87 1.84 -37.0 0 1 321.51 335.72
  Q 312.83 332.11 303.53 331.43
  C 297.58 330.99 291.37 332.88 285.70 330.72
  Q 281.82 329.24 278.27 326.95
  A 0.25 0.25 0.0 0 1 278.38 326.49
  C 288.59 325.12 292.39 318.50 292.84 308.89
  A 0.94 0.91 78.2 0 1 293.33 308.12
  C 301.62 303.89 289.69 294.70 287.33 303.63
  C 286.88 305.30 287.83 307.27 287.29 309.03
  C 286.40 311.93 284.28 317.72 281.80 319.42
  C 276.85 322.82 273.35 317.35 273.29 313.04
  A 1.12 1.11 69.5 0 1 273.68 312.17
  C 274.90 311.13 276.17 310.43 276.56 308.87
  C 278.87 299.62 262.56 302.47 268.51 311.87
  Q 268.79 312.30 268.56 312.76
  C 267.30 315.31 266.34 318.96 263.74 320.35
  C 258.24 323.26 253.15 320.94 249.36 316.39
  Q 240.71 305.97 249.48 293.55
  C 260.87 280.70 270.94 265.95 289.48 263.68
  C 304.97 261.79 315.25 265.30 331.26 270.47
  Q 339.20 273.03 350.62 272.30
  Q 351.18 272.27 351.35 272.80
  Q 352.52 276.37 355.64 276.53
  C 361.92 276.85 363.34 267.34 357.01 266.64
  Q 353.75 266.28 351.33 269.02
  A 1.28 1.25 -70.9 0 1 350.49 269.44
  C 338.07 270.39 324.48 262.28 313.17 257.88
  Q 295.89 251.17 277.80 255.36
  Q 277.34 255.47 277.62 255.08
  C 281.72 249.53 285.04 242.33 289.14 238.05
  C 297.93 228.89 306.62 227.78 319.07 226.87
  C 327.99 226.22 335.40 224.42 342.96 220.75
  C 354.91 214.94 366.50 215.96 379.63 215.92
  C 385.83 215.87 386.89 214.80 390.33 210.03
  Q 390.70 209.51 391.06 209.40
  Q 391.67 209.22 392.12 209.78
  Q 392.44 210.17 392.92 210.29
  C 399.19 211.91 400.48 201.78 394.40 201.31
  Q 389.48 200.93 388.62 206.34
  Q 388.55 206.77 388.14 206.93
  L 378.82 210.54
  Z
  M 128.8449 212.1669
  A 4.64 4.33 101.5 0 0 134.0131 208.4833
  A 4.64 4.33 101.5 0 0 130.6951 203.0731
  A 4.64 4.33 101.5 0 0 125.5269 206.7567
  A 4.64 4.33 101.5 0 0 128.8449 212.1669
  Z
  M 76.9299 226.6978
  A 4.84 4.29 101.2 0 0 82.0783 222.7833
  A 4.84 4.29 101.2 0 0 78.8101 217.2022
  A 4.84 4.29 101.2 0 0 73.6617 221.1167
  A 4.84 4.29 101.2 0 0 76.9299 226.6978
  Z
  M 354.5204 231.6090
  A 5.23 4.55 88.9 0 0 358.9692 226.2927
  A 5.23 4.55 88.9 0 0 354.3196 221.1510
  A 5.23 4.55 88.9 0 0 349.8708 226.4673
  A 5.23 4.55 88.9 0 0 354.5204 231.6090
  Z
  M 421.35 227.85
  A 4.76 4.76 0.0 0 0 416.59 223.09
  A 4.76 4.76 0.0 0 0 411.83 227.85
  A 4.76 4.76 0.0 0 0 416.59 232.61
  A 4.76 4.76 0.0 0 0 421.35 227.85
  Z
  M 386.04 232.58
  A 4.75 4.75 0.0 0 0 381.29 227.83
  A 4.75 4.75 0.0 0 0 376.54 232.58
  A 4.75 4.75 0.0 0 0 381.29 237.33
  A 4.75 4.75 0.0 0 0 386.04 232.58
  Z
  M 312.08 243.95
  Q 314.95 239.41 320.00 240.75
  C 328.64 243.05 331.50 251.01 342.16 249.95
  A 1.53 1.49 -31.6 0 1 343.05 250.15
  C 351.92 255.30 354.49 241.54 346.56 242.17
  C 342.86 242.46 341.48 245.46 336.98 242.82
  C 328.44 237.80 320.45 230.08 310.18 236.13
  C 304.35 239.56 301.86 250.83 311.56 251.60
  Q 313.08 251.72 312.82 250.21
  L 311.90 244.81
  Q 311.82 244.34 312.08 243.95
  Z
  M 226.30 270.06
  L 222.46 277.38
  Q 222.09 278.09 222.82 277.76
  C 236.24 271.57 240.16 265.23 243.81 251.54
  A 0.97 0.94 -0.8 0 1 244.47 250.88
  C 252.74 248.60 250.13 235.63 242.01 239.39
  C 239.07 240.74 240.53 243.57 240.46 246.00
  Q 240.44 246.62 239.82 246.54
  C 233.48 245.78 234.03 254.93 230.69 258.64
  C 226.53 263.26 220.17 263.30 214.02 262.37
  Q 193.81 259.31 175.42 268.46
  Q 172.12 270.10 171.18 271.47
  Q 165.14 280.29 155.44 284.64
  C 151.85 286.24 145.31 278.46 141.57 278.35
  C 135.80 278.18 132.12 288.07 125.22 283.79
  C 121.22 281.31 116.04 286.02 118.68 290.38
  C 121.15 294.45 125.59 292.09 127.04 288.59
  Q 127.24 288.10 127.76 288.18
  C 131.68 288.78 137.92 283.97 140.83 281.62
  A 0.94 0.93 -43.2 0 1 142.05 281.65
  C 145.01 284.33 150.20 288.76 154.20 289.75
  Q 154.70 289.88 155.17 289.65
  C 161.84 286.45 169.49 282.16 173.81 275.98
  Q 175.25 273.94 175.40 276.43
  Q 175.43 276.97 175.53 277.90
  C 176.09 283.23 181.20 283.12 183.47 279.00
  Q 183.74 278.50 183.49 277.98
  L 182.42 275.76
  Q 182.26 275.43 182.49 275.15
  C 187.32 269.35 203.28 268.53 210.32 269.17
  Q 217.17 269.78 226.13 269.77
  Q 226.45 269.77 226.30 270.06
  Z
  M 418.2332 255.9994
  A 4.89 4.41 90.9 0 0 422.7195 251.1793
  A 4.89 4.41 90.9 0 0 418.3868 246.2206
  A 4.89 4.41 90.9 0 0 413.9005 251.0407
  A 4.89 4.41 90.9 0 0 418.2332 255.9994
  Z
  M 153.7416 269.5722
  A 4.80 4.29 82.8 0 0 157.3962 264.2723
  A 4.80 4.29 82.8 0 0 152.5384 260.0478
  A 4.80 4.29 82.8 0 0 148.8838 265.3477
  A 4.80 4.29 82.8 0 0 153.7416 269.5722
  Z
  M 388.0425 276.9247
  A 4.94 4.63 108.5 0 0 394.0007 273.7091
  A 4.94 4.63 108.5 0 0 391.1775 267.5553
  A 4.94 4.63 108.5 0 0 385.2193 270.7709
  A 4.94 4.63 108.5 0 0 388.0425 276.9247
  Z
  M 142.46 273.44
  A 4.65 4.65 0.0 0 0 137.81 268.79
  A 4.65 4.65 0.0 0 0 133.16 273.44
  A 4.65 4.65 0.0 0 0 137.81 278.09
  A 4.65 4.65 0.0 0 0 142.46 273.44
  Z
  M 183.52 395.30
  C 182.36 401.68 190.65 400.48 193.24 403.12
  A 1.56 1.56 0.0 0 1 192.69 405.66
  Q 188.65 407.22 186.74 403.48
  Q 186.50 403.00 185.96 403.00
  L 183.43 403.00
  Q 182.75 403.00 182.85 403.68
  C 184.13 412.19 199.76 410.54 197.71 402.51
  C 196.77 398.83 192.02 397.84 188.68 397.35
  A 1.46 1.46 0.0 0 1 188.17 394.65
  Q 190.13 393.52 192.13 394.27
  A 1.17 1.15 -0.4 0 1 192.79 394.91
  Q 193.81 397.36 196.76 396.37
  Q 197.26 396.21 197.21 395.68
  C 196.64 389.26 184.67 389.01 183.52 395.30
  Z
  M 223.72 399.96
  A 9.22 9.22 0.0 0 0 214.50 390.74
  A 9.22 9.22 0.0 0 0 205.28 399.96
  A 9.22 9.22 0.0 0 0 214.50 409.18
  A 9.22 9.22 0.0 0 0 223.72 399.96
  Z
  M 253.68 394.50
  A 0.32 0.32 0.0 0 1 254.00 394.82
  L 254.00 408.68
  A 0.32 0.32 0.0 0 0 254.32 409.00
  L 257.68 409.00
  A 0.32 0.32 0.0 0 0 258.00 408.68
  L 258.00 394.82
  A 0.32 0.32 0.0 0 1 258.32 394.50
  L 262.93 394.50
  A 0.32 0.32 0.0 0 0 263.25 394.18
  L 263.25 391.26
  A 0.32 0.32 0.0 0 0 262.93 390.94
  L 249.32 391.00
  A 0.32 0.32 0.0 0 0 249.00 391.32
  L 249.00 394.18
  A 0.32 0.32 0.0 0 0 249.32 394.50
  L 253.68 394.50
  Z
  M 280.66 397.00
  A 0.25 0.24 -44.8 0 1 281.13 397.00
  L 284.50 408.54
  A 0.63 0.62 -8.0 0 0 285.10 408.99
  L 288.96 409.01
  Q 289.44 409.01 289.52 408.54
  L 292.75 391.69
  Q 292.89 391.00 292.19 391.00
  L 289.00 391.00
  Q 288.50 391.00 288.42 391.49
  L 286.68 401.97
  A 0.34 0.34 0.0 0 1 286.02 402.01
  L 283.32 392.49
  A 2.51 2.51 0.0 0 0 278.50 392.49
  L 275.72 402.22
  A 0.29 0.29 0.0 0 1 275.15 402.19
  L 273.41 391.44
  A 0.73 0.72 83.1 0 0 272.64 390.83
  L 269.42 391.07
  Q 268.94 391.10 269.03 391.58
  L 272.22 408.42
  Q 272.33 409.00 272.92 409.00
  L 276.75 409.00
  Q 277.20 409.00 277.32 408.57
  L 280.66 397.00
  Z
  M 317.97 399.95
  A 9.22 9.22 0.0 0 0 308.75 390.73
  A 9.22 9.22 0.0 0 0 299.53 399.95
  A 9.22 9.22 0.0 0 0 308.75 409.17
  A 9.22 9.22 0.0 0 0 317.97 399.95
  Z
  M 350.37 398.26
  A 0.34 0.34 0.0 0 1 349.75 398.06
  L 349.75 391.19
  A 0.34 0.34 0.0 0 0 349.39 390.85
  L 346.07 391.08
  A 0.34 0.34 0.0 0 0 345.75 391.42
  L 345.75 408.66
  A 0.34 0.34 0.0 0 0 346.09 409.00
  L 349.48 409.00
  A 0.34 0.34 0.0 0 0 349.82 408.66
  L 349.72 401.72
  A 0.34 0.34 0.0 0 1 350.34 401.52
  L 355.42 408.85
  A 0.34 0.34 0.0 0 0 355.70 409.00
  L 360.28 409.00
  A 0.34 0.34 0.0 0 0 360.55 408.45
  L 353.91 400.13
  A 0.34 0.34 0.0 0 1 353.90 399.71
  L 360.20 391.55
  A 0.34 0.34 0.0 0 0 359.93 391.00
  L 355.69 391.00
  A 0.34 0.34 0.0 0 0 355.41 391.14
  L 350.37 398.26
  Z
  M 371.83 395.00
  Q 373.70 393.43 376.06 394.24
  A 1.14 1.12 -2.3 0 1 376.75 394.87
  Q 377.81 397.37 380.77 396.37
  Q 381.22 396.22 381.20 395.75
  C 380.85 386.41 361.50 391.77 368.72 399.26
  C 370.42 401.02 374.20 401.67 376.78 402.52
  A 1.60 1.59 -48.3 0 1 376.95 405.48
  Q 372.77 407.43 370.74 403.47
  Q 370.49 402.99 369.95 402.99
  L 367.12 403.02
  A 0.51 0.51 0.0 0 0 366.64 403.69
  C 370.22 414.00 385.72 408.40 381.27 401.27
  C 379.70 398.74 375.18 397.80 372.32 397.10
  A 1.21 1.21 0.0 0 1 371.83 395.00
  Z
  M 142.22 391.57
  L 142.20 408.35
  A 0.63 0.63 0.0 0 0 142.82 408.98
  L 147.51 408.99
  A 9.20 8.87 0.1 0 0 156.73 400.13
  L 156.73 399.83
  A 9.20 8.87 0.1 0 0 147.55 390.95
  L 142.86 390.94
  A 0.63 0.63 0.0 0 0 142.22 391.57
  Z
  M 174.51 398.69
  C 175.33 397.74 175.77 397.08 175.81 395.80
  C 176.00 390.06 169.55 390.88 164.95 391.06
  Q 164.50 391.08 164.50 391.52
  L 164.50 408.46
  Q 164.50 409.17 165.22 409.14
  L 174.63 408.65
  A 0.92 0.89 18.4 0 0 175.27 408.34
  Q 179.79 403.05 174.63 399.57
  Q 174.08 399.20 174.51 398.69
  Z
  M 236.01 398.16
  A 0.37 0.37 0.0 0 1 235.62 397.79
  L 235.63 394.87
  A 0.37 0.37 0.0 0 1 236.00 394.50
  L 241.64 394.50
  A 0.37 0.37 0.0 0 0 242.01 394.13
  L 242.01 391.37
  A 0.37 0.37 0.0 0 0 241.64 391.00
  L 231.87 391.00
  A 0.37 0.37 0.0 0 0 231.50 391.37
  L 231.50 408.63
  A 0.37 0.37 0.0 0 0 231.87 409.00
  L 235.23 409.00
  A 0.37 0.37 0.0 0 0 235.60 408.63
  L 235.55 402.12
  A 0.37 0.37 0.0 0 1 235.92 401.75
  L 241.37 401.75
  A 0.37 0.37 0.0 0 0 241.74 401.39
  L 241.78 398.30
  A 0.37 0.37 0.0 0 0 241.40 397.93
  L 236.01 398.16
  Z
  M 329.75 403.72
  A 0.44 0.44 0.0 0 1 330.56 403.48
  L 333.90 408.56
  A 0.98 0.98 0.0 0 0 334.72 409.00
  L 338.22 409.00
  A 0.52 0.52 0.0 0 0 338.63 408.15
  L 334.51 402.97
  Q 334.12 402.49 334.67 402.20
  C 339.67 399.63 339.15 391.63 332.99 391.10
  Q 329.70 390.81 326.36 391.06
  Q 325.75 391.11 325.75 391.72
  L 325.75 408.38
  Q 325.75 409.00 326.38 409.00
  L 329.12 409.00
  Q 329.75 409.00 329.75 408.37
  L 329.75 403.72
  Z"
/>
<circle fill="#4bcf0b" cx="286.11" cy="43.14" r="4.72"/>
<circle fill="#72cc10" cx="218.42" cy="63.19" r="4.66"/>
<circle fill="#4bcf0b" cx="260.51" cy="64.10" r="4.72"/>
<circle fill="#4bcf0b" cx="285.96" cy="72.45" r="4.77"/>
<circle fill="#4bcf0b" cx="314.93" cy="75.59" r="4.72"/>
<circle fill="#72cc10" cx="158.81" cy="81.18" r="4.77"/>
<path fill="#4bcf0b" d="
  M 238.06 89.55
  Q 238.12 90.00 237.52 89.65
  C 236.61 87.62 236.15 85.08 237.84 83.32
  C 242.38 78.58 248.69 86.44 243.79 90.08
  Q 241.27 91.95 238.06 89.55
  Z"
/>
<path fill="#4bcf0b" d="
  M 211.57 149.97
  C 210.53 139.23 206.26 125.13 209.32 113.90
  Q 209.46 113.38 209.02 113.05
  L 207.89 112.20
  Q 207.51 111.91 207.24 111.51
  Q 204.51 107.37 208.65 104.55
  Q 209.09 104.25 209.15 103.72
  L 210.48 92.82
  Q 210.53 92.41 210.19 92.18
  Q 208.64 91.13 208.52 89.24
  C 208.00 80.99 218.76 82.65 217.97 89.26
  Q 217.57 92.61 213.90 92.94
  Q 213.43 92.98 213.44 93.44
  L 213.53 103.86
  A 0.83 0.82 19.3 0 0 213.85 104.51
  C 216.89 106.90 217.63 110.57 214.07 112.88
  Q 213.69 113.12 213.70 113.57
  Q 214.12 128.32 216.24 138.00
  Q 221.49 161.95 221.59 182.27
  Q 221.60 182.78 221.98 183.11
  C 224.63 185.43 225.81 189.88 222.80 192.08
  C 217.54 195.91 212.82 186.86 216.17 183.31
  Q 216.51 182.95 216.35 182.48
  C 214.41 176.62 214.74 170.25 213.32 164.23
  Q 212.34 160.01 209.53 154.84
  Q 204.42 145.46 199.44 136.03
  C 196.88 131.18 191.33 129.76 189.41 125.02
  Q 185.30 114.83 186.53 103.80
  Q 186.59 103.30 186.17 103.02
  C 182.08 100.30 183.59 93.66 189.51 94.29
  C 194.40 94.81 195.26 101.27 190.75 102.77
  Q 190.27 102.93 190.21 103.44
  C 189.36 111.87 190.62 122.53 199.01 127.07
  C 204.80 130.21 209.36 143.92 211.24 150.03
  A 0.17 0.17 0.0 0 0 211.57 149.97
  Z"
/>
<ellipse fill="#06c3cb" cx="0.00" cy="0.00" transform="translate(293.68,91.81) rotate(104.9)" rx="5.25" ry="4.84"/>
<path fill="#13debb" d="
  M 320.64 88.74
  A 0.82 0.76 -3.2 0 1 320.88 88.49
  C 326.51 84.23 330.48 92.29 325.66 96.19
  Q 325.26 96.51 325.26 97.03
  C 325.13 114.21 325.27 126.43 313.87 139.13
  A 0.13 0.13 0.0 0 1 313.65 138.99
  Q 315.46 134.69 317.37 130.19
  C 321.99 119.29 321.72 108.47 321.84 96.89
  Q 321.84 96.48 321.51 96.22
  Q 317.59 93.24 320.64 88.74
  Z"
/>
<path fill="#13debb" d="
  M 252.16 150.51
  Q 251.44 149.49 250.32 149.46
  Q 249.84 149.45 249.52 149.10
  Q 248.66 148.19 246.96 147.76
  C 251.08 143.29 259.22 137.37 261.28 131.76
  C 265.75 119.58 269.76 109.21 269.47 97.24
  Q 269.46 96.72 269.02 96.46
  L 266.96 95.20
  A 0.75 0.74 7.9 0 1 266.64 94.78
  C 264.85 88.75 272.09 84.89 274.79 90.50
  Q 276.61 94.29 273.04 96.72
  Q 272.61 97.02 272.65 97.53
  C 273.64 111.52 268.85 121.92 265.68 133.68
  C 264.49 138.08 263.03 141.92 259.12 144.61
  Q 255.34 147.21 252.16 150.51
  Z"
/>
<path fill="#26efe4" d="
  M 237.52 89.65
  Q 238.12 90.00 238.06 89.55
  L 238.24 91.54
  A 1.24 1.23 63.6 0 1 237.93 92.48
  Q 236.65 93.92 237.03 95.89
  A 0.98 0.97 58.1 0 1 236.86 96.65
  L 233.55 101.21
  A 0.68 0.68 0.0 0 0 233.57 102.04
  C 235.59 104.63 238.27 107.19 239.61 109.78
  C 242.13 114.66 241.08 119.93 241.00 125.04
  Q 240.99 125.75 241.61 125.41
  Q 247.82 122.05 251.07 115.74
  Q 251.41 115.07 250.70 114.84
  L 249.84 114.56
  Q 249.42 114.42 249.23 114.02
  C 245.31 105.92 255.42 103.32 257.90 110.00
  Q 258.08 110.50 257.84 110.97
  L 256.75 113.15
  Q 256.52 113.62 256.61 114.13
  C 257.76 120.26 249.37 125.45 245.13 128.43
  Q 238.59 133.03 236.05 140.78
  L 232.04 140.79
  C 232.77 131.72 236.68 123.89 236.51 115.00
  C 236.37 107.84 215.33 94.60 234.74 92.56
  A 1.10 1.09 16.3 0 0 235.46 92.17
  L 237.52 89.65
  Z"
/>
<path fill="#4bcf0b" d="
  M 327.06 153.22
  L 323.92 152.08
  C 328.97 143.56 333.71 134.50 335.30 124.66
  Q 335.38 124.16 335.12 123.72
  C 331.95 118.60 334.28 114.77 340.44 115.90
  Q 340.94 115.99 341.02 115.49
  L 343.10 102.77
  A 0.93 0.92 -63.8 0 0 342.83 101.97
  C 338.79 98.06 343.36 91.92 348.17 94.11
  C 351.84 95.79 351.70 103.30 346.53 102.72
  Q 345.99 102.66 345.92 103.21
  Q 345.21 108.91 343.79 114.38
  C 343.04 117.27 343.04 119.99 342.73 122.96
  A 0.71 0.70 -5.0 0 1 342.22 123.56
  L 339.75 124.29
  Q 339.30 124.42 339.22 124.88
  Q 336.75 140.06 327.06 153.22
  Z"
/>
<circle fill="#4bcf0b" cx="371.54" cy="106.81" r="4.58"/>
<circle fill="#4bcf0b" cx="302.78" cy="110.83" r="4.61"/>
<ellipse fill="#72cc10" cx="0.00" cy="0.00" transform="translate(151.69,115.65) rotate(90.6)" rx="4.77" ry="4.47"/>
<circle fill="#72cc10" cx="169.94" cy="123.26" r="4.78"/>
<ellipse fill="#06c3cb" cx="0.00" cy="0.00" transform="translate(284.40,125.35) rotate(80.2)" rx="4.98" ry="4.34"/>
<path fill="#13debb" d="
  M 361.27 134.80
  Q 360.04 134.29 358.71 135.10
  C 350.92 131.12 356.53 121.71 361.96 125.99
  Q 366.42 129.51 361.27 134.80
  Z"
/>
<circle fill="#4bcf0b" cx="398.91" cy="132.52" r="4.60"/>
<circle fill="#72cc10" cx="120.08" cy="136.29" r="4.73"/>
<path fill="#4bcf0b" d="
  M 305.81 143.20
  Q 305.91 141.53 304.12 140.75
  Q 299.68 136.16 303.20 132.67
  C 306.35 129.57 314.02 133.71 309.79 139.32
  Q 309.04 140.31 305.81 143.20
  Z"
/>
<path fill="#72cc10" d="
  M 361.27 134.80
  Q 361.82 138.10 361.05 140.60
  Q 360.54 142.24 362.07 141.44
  Q 363.54 140.67 364.26 141.25
  Q 364.75 141.63 364.77 142.91
  C 364.85 146.65 364.67 151.19 360.10 150.21
  Q 359.52 150.08 359.40 150.66
  C 357.50 159.25 350.71 177.05 341.09 179.41
  C 333.37 181.29 321.96 184.92 317.83 191.49
  C 315.97 194.44 316.28 199.25 313.91 201.57
  C 307.36 207.96 294.88 196.55 285.58 203.35
  C 281.19 206.56 287.42 212.41 280.54 214.12
  C 275.46 215.39 273.45 209.12 274.70 205.43
  Q 275.41 203.32 278.03 200.19
  C 286.20 190.43 296.52 193.96 307.12 197.01
  Q 307.66 197.17 307.92 196.66
  C 308.93 194.62 309.83 191.99 310.69 190.41
  C 316.81 179.21 329.50 176.51 340.48 172.26
  C 349.20 168.87 352.28 158.48 355.63 151.03
  C 357.88 146.01 358.18 140.42 358.71 135.10
  Q 360.04 134.29 361.27 134.80
  Z"
/>
<path fill="#72cc10" d="
  M 194.04 174.54
  Q 191.63 177.45 188.20 175.90
  A 1.14 1.12 2.8 0 1 187.60 175.25
  Q 186.44 172.14 187.58 169.01
  Q 187.80 168.39 187.18 168.19
  C 176.34 164.58 174.56 157.42 173.22 147.08
  Q 173.15 146.59 172.68 146.45
  Q 168.03 145.07 168.69 140.79
  C 169.81 133.59 181.96 136.49 177.99 145.76
  A 1.44 1.44 0.0 0 0 177.93 146.72
  C 180.41 155.04 181.52 161.33 191.21 163.97
  C 202.84 167.15 206.28 176.33 207.14 187.35
  Q 207.19 187.98 206.57 188.05
  L 201.15 188.72
  Q 200.54 188.80 200.48 188.19
  C 199.92 182.55 199.44 177.92 194.89 174.45
  Q 194.42 174.09 194.04 174.54
  Z"
/>
<circle fill="#8eb908" cx="138.47" cy="143.87" r="4.82"/>
<path fill="#13debb" d="
  M 232.04 140.79
  L 236.05 140.78
  C 242.74 149.87 229.26 154.06 227.92 146.62
  Q 227.09 141.96 232.04 140.79
  Z"
/>
<path fill="#95ef05" d="
  M 304.12 140.75
  Q 305.91 141.53 305.81 143.20
  C 299.40 149.14 291.24 151.92 284.83 157.39
  C 268.99 170.90 267.05 188.50 267.54 208.26
  Q 267.72 215.69 261.27 219.16
  Q 260.74 219.45 261.18 219.85
  C 266.95 225.07 266.25 235.19 257.66 236.33
  Q 257.13 236.40 257.16 235.87
  C 257.88 223.45 247.15 222.26 236.85 221.23
  Q 236.60 221.41 236.51 221.05
  Q 236.45 220.84 236.66 220.77
  Q 236.78 220.73 236.91 220.74
  Q 237.17 220.75 237.08 220.51
  Q 235.31 215.80 238.64 214.95
  L 237.26 202.09
  Q 237.21 201.56 236.70 201.40
  C 232.01 199.93 232.81 193.35 237.57 193.09
  C 245.61 192.66 245.53 208.13 245.83 212.88
  A 0.66 0.66 0.0 0 0 246.50 213.50
  C 251.43 213.45 256.71 212.82 257.00 206.55
  C 257.33 199.46 256.65 191.70 258.23 185.15
  Q 263.06 165.12 278.82 152.30
  C 285.93 146.52 295.15 143.41 304.12 140.75
  Z"
/>
<path fill="#72cc10" d="
  M 246.96 147.76
  Q 248.66 148.19 249.52 149.10
  Q 249.84 149.45 250.32 149.46
  Q 251.44 149.49 252.16 150.51
  C 246.61 159.13 247.22 169.20 250.29 178.68
  Q 250.44 179.15 249.98 179.31
  C 244.60 181.28 242.19 178.47 241.22 173.50
  Q 238.55 159.94 246.96 147.76
  Z"
/>
<path fill="#8eb908" d="
  M 238.64 214.95
  Q 235.31 215.80 237.08 220.51
  Q 237.17 220.75 236.91 220.74
  Q 236.78 220.73 236.66 220.77
  Q 236.45 220.84 236.51 221.05
  Q 236.60 221.41 236.85 221.23
  C 239.05 234.03 231.14 241.69 219.93 245.41
  Q 211.60 248.17 186.93 254.24
  Q 185.22 252.59 185.38 249.06
  L 201.52 244.31
  Q 202.44 244.04 201.50 243.84
  Q 188.64 241.07 178.57 232.66
  A 0.63 0.62 -51.0 0 0 177.68 232.76
  C 172.77 239.12 164.67 238.68 159.27 233.51
  Q 158.87 233.12 158.46 233.50
  Q 156.08 235.71 153.59 233.92
  C 146.87 229.09 157.28 221.66 160.47 228.58
  C 161.61 231.07 162.08 232.54 165.21 232.67
  Q 170.20 232.89 173.26 228.94
  A 0.89 0.88 -49.5 0 0 173.17 227.75
  C 163.56 218.72 157.57 206.50 143.91 203.27
  C 135.31 201.24 129.67 199.29 123.03 193.36
  Q 122.53 192.91 122.12 193.45
  L 121.14 194.74
  A 0.69 0.69 0.0 0 1 120.72 195.00
  Q 114.89 196.25 114.28 190.51
  C 113.60 184.15 122.09 183.00 124.15 190.11
  Q 124.29 190.59 124.71 190.87
  Q 131.44 195.32 139.12 197.51
  C 146.32 199.57 153.65 198.92 160.12 203.84
  Q 162.04 205.30 166.64 211.34
  C 178.22 226.55 198.85 243.18 218.49 236.54
  Q 226.06 233.98 228.19 227.97
  C 229.75 223.57 226.43 221.48 222.87 219.39
  Q 212.30 213.19 201.36 219.63
  Q 200.90 219.90 200.40 219.69
  C 196.43 217.98 196.33 213.71 196.08 210.01
  Q 195.51 201.73 190.16 195.91
  C 183.52 188.69 173.51 192.74 170.98 180.10
  C 169.43 172.33 169.19 165.40 161.43 160.63
  Q 159.11 159.21 156.81 157.73
  Q 156.37 157.45 156.15 157.92
  C 154.64 161.11 150.40 163.20 148.46 159.06
  C 145.66 153.05 152.43 149.01 156.23 154.05
  C 157.09 155.20 157.55 155.73 159.08 155.99
  Q 171.75 158.10 175.50 169.91
  C 176.55 173.21 176.40 177.70 177.04 180.75
  C 178.34 187.04 185.83 185.85 190.34 187.95
  C 197.93 191.50 202.05 201.21 202.96 209.03
  Q 203.02 209.60 203.56 209.41
  C 211.01 206.81 217.09 207.23 224.89 209.96
  C 228.73 211.31 234.79 214.87 238.64 214.95
  Z"
/>
<path fill="#72cc10" d="
  M 323.92 152.08
  L 327.06 153.22
  C 331.38 158.38 327.89 166.48 321.97 162.20
  Q 321.58 161.92 321.12 162.08
  C 313.22 164.89 298.87 167.55 297.00 177.65
  C 295.25 187.08 281.14 182.25 287.52 172.90
  C 294.93 162.05 308.06 158.52 320.35 157.39
  Q 320.82 157.35 320.98 156.90
  Q 321.99 154.14 323.92 152.08
  Z"
/>
<circle fill="#4bcf0b" cx="379.08" cy="157.66" r="4.68"/>
<circle fill="#8eb908" cx="95.10" cy="161.37" r="4.83"/>
<path fill="#8eb908" d="
  M 167.97 199.02
  C 160.08 198.76 154.58 187.04 153.28 180.24
  C 152.88 178.18 151.24 177.42 149.20 176.93
  Q 139.31 174.58 131.55 167.97
  A 0.80 0.79 52.0 0 0 130.71 167.86
  Q 128.69 168.82 127.20 167.07
  C 122.50 161.56 129.97 155.33 134.41 160.11
  C 135.75 161.55 134.58 163.59 134.29 165.17
  Q 134.20 165.68 134.65 165.95
  Q 141.56 170.05 151.95 173.50
  C 155.18 174.57 157.39 177.10 158.68 180.57
  C 160.64 185.86 165.49 197.05 172.98 194.19
  A 1.21 1.20 46.7 0 1 173.91 194.22
  Q 178.23 196.11 177.62 200.15
  C 176.63 206.60 169.31 204.74 168.55 199.54
  Q 168.48 199.03 167.97 199.02
  Z"
/>
<circle fill="#4bcf0b" cx="402.96" cy="166.42" r="4.62"/>
<path fill="#4bcf0b" d="
  M 375.32 179.01
  C 370.49 176.88 373.24 170.87 378.03 170.74
  C 383.05 170.60 383.05 177.17 379.73 179.72
  Q 379.28 180.07 379.76 180.37
  C 386.28 184.42 381.16 193.34 375.46 188.35
  Q 375.01 187.95 374.59 188.38
  Q 367.52 195.75 363.21 198.16
  C 356.26 202.03 351.30 199.60 344.57 197.43
  Q 337.57 195.17 332.68 200.06
  A 0.58 0.58 0.0 0 0 332.75 200.94
  Q 335.01 202.57 335.19 204.99
  C 335.71 211.70 327.07 210.32 326.61 204.75
  C 325.92 196.56 332.21 188.19 341.07 191.15
  Q 348.98 193.78 351.82 194.40
  C 360.65 196.35 370.90 186.19 375.54 179.83
  Q 375.94 179.28 375.32 179.01
  Z"
/>
<circle fill="#a2a906" cx="82.88" cy="183.97" r="4.63"/>
<circle fill="#4bcf0b" cx="407.61" cy="194.90" r="4.51"/>
<ellipse fill="#a2a906" cx="0.00" cy="0.00" transform="translate(101.96,203.06) rotate(83.3)" rx="4.76" ry="4.50"/>
<path fill="#4bcf0b" d="
  M 379.63 215.92
  Q 377.99 214.22 378.82 210.54
  L 388.14 206.93
  Q 388.55 206.77 388.62 206.34
  Q 389.48 200.93 394.40 201.31
  C 400.48 201.78 399.19 211.91 392.92 210.29
  Q 392.44 210.17 392.12 209.78
  Q 391.67 209.22 391.06 209.40
  Q 390.70 209.51 390.33 210.03
  C 386.89 214.80 385.83 215.87 379.63 215.92
  Z"
/>
<ellipse fill="#8eb908" cx="0.00" cy="0.00" transform="translate(129.77,207.62) rotate(101.5)" rx="4.64" ry="4.33"/>
<path fill="#72cc10" d="
  M 378.82 210.54
  Q 377.99 214.22 379.63 215.92
  C 366.50 215.96 354.91 214.94 342.96 220.75
  C 335.40 224.42 327.99 226.22 319.07 226.87
  C 306.62 227.78 297.93 228.89 289.14 238.05
  C 285.04 242.33 281.72 249.53 277.62 255.08
  Q 277.34 255.47 277.80 255.36
  Q 295.89 251.17 313.17 257.88
  C 324.48 262.28 338.07 270.39 350.49 269.44
  A 1.28 1.25 -70.9 0 0 351.33 269.02
  Q 353.75 266.28 357.01 266.64
  C 363.34 267.34 361.92 276.85 355.64 276.53
  Q 352.52 276.37 351.35 272.80
  Q 351.18 272.27 350.62 272.30
  Q 339.20 273.03 331.26 270.47
  C 315.25 265.30 304.97 261.79 289.48 263.68
  C 270.94 265.95 260.87 280.70 249.48 293.55
  L 237.47 290.70
  Q 239.38 287.67 242.25 284.25
  C 253.68 270.65 266.08 258.40 272.89 241.32
  C 279.20 225.49 290.58 216.71 308.33 218.99
  Q 312.25 219.49 320.06 219.55
  C 328.68 219.61 334.40 217.49 342.06 214.04
  C 353.49 208.89 366.49 210.43 378.82 210.54
  Z"
/>
<ellipse fill="#a2a906" cx="0.00" cy="0.00" transform="translate(77.87,221.95) rotate(101.2)" rx="4.84" ry="4.29"/>
<ellipse fill="#4bcf0b" cx="0.00" cy="0.00" transform="translate(354.42,226.38) rotate(88.9)" rx="5.23" ry="4.55"/>
<path fill="#bdaa08" d="
  M 185.38 249.06
  Q 185.22 252.59 186.93 254.24
  C 173.56 258.01 160.64 259.73 150.14 249.03
  Q 149.78 248.66 149.44 249.06
  C 140.58 259.69 121.64 254.23 112.29 247.92
  Q 111.78 247.57 111.27 247.92
  L 109.17 249.34
  Q 108.84 249.57 108.43 249.55
  Q 104.78 249.35 103.49 246.01
  C 101.69 241.33 107.85 238.47 110.99 241.09
  C 112.13 242.04 112.67 243.49 113.23 244.96
  Q 113.42 245.46 113.91 245.70
  C 120.49 248.97 140.29 254.23 145.23 245.83
  Q 145.55 245.29 145.31 244.70
  L 141.49 235.41
  A 2.19 2.18 -10.3 0 0 139.55 234.07
  C 131.18 233.77 123.61 234.26 116.42 229.24
  A 1.11 1.10 32.0 0 0 114.83 229.60
  C 111.22 235.94 103.28 224.33 111.64 221.82
  C 114.54 220.95 116.88 224.74 118.44 226.65
  A 1.52 1.51 -13.6 0 0 119.31 227.18
  Q 126.16 228.63 138.49 229.71
  C 147.71 230.51 148.10 239.52 153.58 244.78
  C 162.29 253.14 174.52 251.53 185.38 249.06
  Z"
/>
<circle fill="#72cc10" cx="416.59" cy="227.85" r="4.76"/>
<circle fill="#4bcf0b" cx="381.29" cy="232.58" r="4.75"/>
<path fill="#72cc10" d="
  M 311.90 244.81
  L 312.82 250.21
  Q 313.08 251.72 311.56 251.60
  C 301.86 250.83 304.35 239.56 310.18 236.13
  C 320.45 230.08 328.44 237.80 336.98 242.82
  C 341.48 245.46 342.86 242.46 346.56 242.17
  C 354.49 241.54 351.92 255.30 343.05 250.15
  A 1.53 1.49 -31.6 0 0 342.16 249.95
  C 331.50 251.01 328.64 243.05 320.00 240.75
  Q 314.95 239.41 312.08 243.95
  Q 311.82 244.34 311.90 244.81
  Z"
/>
<path fill="#a2a906" d="
  M 226.13 269.77
  Q 217.17 269.78 210.32 269.17
  C 203.28 268.53 187.32 269.35 182.49 275.15
  Q 182.26 275.43 182.42 275.76
  L 183.49 277.98
  Q 183.74 278.50 183.47 279.00
  C 181.20 283.12 176.09 283.23 175.53 277.90
  Q 175.43 276.97 175.40 276.43
  Q 175.25 273.94 173.81 275.98
  C 169.49 282.16 161.84 286.45 155.17 289.65
  Q 154.70 289.88 154.20 289.75
  C 150.20 288.76 145.01 284.33 142.05 281.65
  A 0.94 0.93 -43.2 0 0 140.83 281.62
  C 137.92 283.97 131.68 288.78 127.76 288.18
  Q 127.24 288.10 127.04 288.59
  C 125.59 292.09 121.15 294.45 118.68 290.38
  C 116.04 286.02 121.22 281.31 125.22 283.79
  C 132.12 288.07 135.80 278.18 141.57 278.35
  C 145.31 278.46 151.85 286.24 155.44 284.64
  Q 165.14 280.29 171.18 271.47
  Q 172.12 270.10 175.42 268.46
  Q 193.81 259.31 214.02 262.37
  C 220.17 263.30 226.53 263.26 230.69 258.64
  C 234.03 254.93 233.48 245.78 239.82 246.54
  Q 240.44 246.62 240.46 246.00
  C 240.53 243.57 239.07 240.74 242.01 239.39
  C 250.13 235.63 252.74 248.60 244.47 250.88
  A 0.97 0.94 -0.8 0 0 243.81 251.54
  C 240.16 265.23 236.24 271.57 222.82 277.76
  Q 222.09 278.09 222.46 277.38
  L 226.30 270.06
  Q 226.45 269.77 226.13 269.77
  Z"
/>
<ellipse fill="#72cc10" cx="0.00" cy="0.00" transform="translate(418.31,251.11) rotate(90.9)" rx="4.89" ry="4.41"/>
<ellipse fill="#bdaa08" cx="0.00" cy="0.00" transform="translate(153.14,264.81) rotate(82.8)" rx="4.80" ry="4.29"/>
<ellipse fill="#72cc10" cx="0.00" cy="0.00" transform="translate(389.61,272.24) rotate(108.5)" rx="4.94" ry="4.63"/>
<circle fill="#bdaa08" cx="137.81" cy="273.44" r="4.65"/>
<path fill="#986d1a" d="
  M 249.48 293.55
  Q 240.71 305.97 249.36 316.39
  C 253.15 320.94 258.24 323.26 263.74 320.35
  C 266.34 318.96 267.30 315.31 268.56 312.76
  Q 268.79 312.30 268.51 311.87
  C 262.56 302.47 278.87 299.62 276.56 308.87
  C 276.17 310.43 274.90 311.13 273.68 312.17
  A 1.12 1.11 69.5 0 0 273.29 313.04
  C 273.35 317.35 276.85 322.82 281.80 319.42
  C 284.28 317.72 286.40 311.93 287.29 309.03
  C 287.83 307.27 286.88 305.30 287.33 303.63
  C 289.69 294.70 301.62 303.89 293.33 308.12
  A 0.94 0.91 78.2 0 0 292.84 308.89
  C 292.39 318.50 288.59 325.12 278.38 326.49
  A 0.25 0.25 0.0 0 0 278.27 326.95
  Q 281.82 329.24 285.70 330.72
  C 291.37 332.88 297.58 330.99 303.53 331.43
  Q 312.83 332.11 321.51 335.72
  A 1.87 1.84 -37.0 0 0 322.49 335.85
  C 341.03 333.07 325.89 355.73 321.93 339.30
  Q 321.80 338.79 321.30 338.65
  C 314.04 336.60 307.06 334.96 299.32 335.68
  C 293.25 336.25 285.95 338.36 280.58 334.49
  Q 280.17 334.20 279.68 334.30
  C 265.46 337.21 251.24 334.42 241.37 323.29
  Q 240.93 322.79 240.90 323.45
  Q 240.55 332.72 245.94 340.94
  Q 243.61 342.70 240.01 341.53
  Q 239.51 341.38 239.06 341.63
  Q 237.02 342.79 234.56 342.11
  Q 234.47 342.08 234.50 341.99
  Q 234.54 341.87 234.59 341.74
  Q 234.65 341.57 234.48 341.52
  L 232.12 340.86
  Q 231.68 340.73 231.27 340.95
  Q 229.75 341.76 228.02 340.98
  C 222.07 323.46 227.17 305.60 237.47 290.70
  L 249.48 293.55
  Z"
/>
<path fill="#875c46" d="
  M 245.94 340.94
  C 256.84 356.75 275.47 363.14 293.91 363.86
  A 0.95 0.95 0.0 0 1 294.82 364.84
  L 294.55 372.96
  Q 294.53 373.65 293.84 373.64
  Q 282.32 373.56 270.95 372.60
  C 251.66 370.96 233.99 360.17 228.02 340.98
  Q 229.75 341.76 231.27 340.95
  Q 231.68 340.73 232.12 340.86
  L 234.48 341.52
  Q 234.65 341.57 234.59 341.74
  Q 234.54 341.87 234.50 341.99
  Q 234.47 342.08 234.56 342.11
  Q 237.02 342.79 239.06 341.63
  Q 239.51 341.38 240.01 341.53
  Q 243.61 342.70 245.94 340.94
  Z"
/>
<path fill="#72cc10" d="
  M 193.24 403.12
  C 190.65 400.48 182.36 401.68 183.52 395.30
  C 184.67 389.01 196.64 389.26 197.21 395.68
  Q 197.26 396.21 196.76 396.37
  Q 193.81 397.36 192.79 394.91
  A 1.17 1.15 -0.4 0 0 192.13 394.27
  Q 190.13 393.52 188.17 394.65
  A 1.46 1.46 0.0 0 0 188.68 397.35
  C 192.02 397.84 196.77 398.83 197.71 402.51
  C 199.76 410.54 184.13 412.19 182.85 403.68
  Q 182.75 403.00 183.43 403.00
  L 185.96 403.00
  Q 186.50 403.00 186.74 403.48
  Q 188.65 407.22 192.69 405.66
  A 1.56 1.56 0.0 0 0 193.24 403.12
  Z"
/>
<path fill="#72cc10" d="
  M 223.72 399.96
  A 9.22 9.22 0.0 0 1 214.50 409.18
  A 9.22 9.22 0.0 0 1 205.28 399.96
  A 9.22 9.22 0.0 0 1 214.50 390.74
  A 9.22 9.22 0.0 0 1 223.72 399.96
  Z
  M 219.63 399.93
  A 5.13 5.13 0.0 0 0 214.50 394.80
  A 5.13 5.13 0.0 0 0 209.37 399.93
  A 5.13 5.13 0.0 0 0 214.50 405.06
  A 5.13 5.13 0.0 0 0 219.63 399.93
  Z"
/>
<path fill="#72cc10" d="
  M 253.68 394.50
  L 249.32 394.50
  A 0.32 0.32 0.0 0 1 249.00 394.18
  L 249.00 391.32
  A 0.32 0.32 0.0 0 1 249.32 391.00
  L 262.93 390.94
  A 0.32 0.32 0.0 0 1 263.25 391.26
  L 263.25 394.18
  A 0.32 0.32 0.0 0 1 262.93 394.50
  L 258.32 394.50
  A 0.32 0.32 0.0 0 0 258.00 394.82
  L 258.00 408.68
  A 0.32 0.32 0.0 0 1 257.68 409.00
  L 254.32 409.00
  A 0.32 0.32 0.0 0 1 254.00 408.68
  L 254.00 394.82
  A 0.32 0.32 0.0 0 0 253.68 394.50
  Z"
/>
<path fill="#72cc10" d="
  M 280.66 397.00
  L 277.32 408.57
  Q 277.20 409.00 276.75 409.00
  L 272.92 409.00
  Q 272.33 409.00 272.22 408.42
  L 269.03 391.58
  Q 268.94 391.10 269.42 391.07
  L 272.64 390.83
  A 0.73 0.72 83.1 0 1 273.41 391.44
  L 275.15 402.19
  A 0.29 0.29 0.0 0 0 275.72 402.22
  L 278.50 392.49
  A 2.51 2.51 0.0 0 1 283.32 392.49
  L 286.02 402.01
  A 0.34 0.34 0.0 0 0 286.68 401.97
  L 288.42 391.49
  Q 288.50 391.00 289.00 391.00
  L 292.19 391.00
  Q 292.89 391.00 292.75 391.69
  L 289.52 408.54
  Q 289.44 409.01 288.96 409.01
  L 285.10 408.99
  A 0.63 0.62 -8.0 0 1 284.50 408.54
  L 281.13 397.00
  A 0.25 0.24 -44.8 0 0 280.66 397.00
  Z"
/>
<path fill="#72cc10" d="
  M 317.97 399.95
  A 9.22 9.22 0.0 0 1 308.75 409.17
  A 9.22 9.22 0.0 0 1 299.53 399.95
  A 9.22 9.22 0.0 0 1 308.75 390.73
  A 9.22 9.22 0.0 0 1 317.97 399.95
  Z
  M 313.87 399.93
  A 5.12 5.12 0.0 0 0 308.75 394.81
  A 5.12 5.12 0.0 0 0 303.63 399.93
  A 5.12 5.12 0.0 0 0 308.75 405.05
  A 5.12 5.12 0.0 0 0 313.87 399.93
  Z"
/>
<path fill="#72cc10" d="
  M 350.37 398.26
  L 355.41 391.14
  A 0.34 0.34 0.0 0 1 355.69 391.00
  L 359.93 391.00
  A 0.34 0.34 0.0 0 1 360.20 391.55
  L 353.90 399.71
  A 0.34 0.34 0.0 0 0 353.91 400.13
  L 360.55 408.45
  A 0.34 0.34 0.0 0 1 360.28 409.00
  L 355.70 409.00
  A 0.34 0.34 0.0 0 1 355.42 408.85
  L 350.34 401.52
  A 0.34 0.34 0.0 0 0 349.72 401.72
  L 349.82 408.66
  A 0.34 0.34 0.0 0 1 349.48 409.00
  L 346.09 409.00
  A 0.34 0.34 0.0 0 1 345.75 408.66
  L 345.75 391.42
  A 0.34 0.34 0.0 0 1 346.07 391.08
  L 349.39 390.85
  A 0.34 0.34 0.0 0 1 349.75 391.19
  L 349.75 398.06
  A 0.34 0.34 0.0 0 0 350.37 398.26
  Z"
/>
<path fill="#72cc10" d="
  M 371.83 395.00
  A 1.21 1.21 0.0 0 0 372.32 397.10
  C 375.18 397.80 379.70 398.74 381.27 401.27
  C 385.72 408.40 370.22 414.00 366.64 403.69
  A 0.51 0.51 0.0 0 1 367.12 403.02
  L 369.95 402.99
  Q 370.49 402.99 370.74 403.47
  Q 372.77 407.43 376.95 405.48
  A 1.60 1.59 -48.3 0 0 376.78 402.52
  C 374.20 401.67 370.42 401.02 368.72 399.26
  C 361.50 391.77 380.85 386.41 381.20 395.75
  Q 381.22 396.22 380.77 396.37
  Q 377.81 397.37 376.75 394.87
  A 1.14 1.12 -2.3 0 0 376.06 394.24
  Q 373.70 393.43 371.83 395.00
  Z"
/>
<path fill="#a2a906" d="
  M 142.22 391.57
  A 0.63 0.63 0.0 0 1 142.86 390.94
  L 147.55 390.95
  A 9.20 8.87 0.1 0 1 156.73 399.83
  L 156.73 400.13
  A 9.20 8.87 0.1 0 1 147.51 408.99
  L 142.82 408.98
  A 0.63 0.63 0.0 0 1 142.20 408.35
  L 142.22 391.57
  Z
  M 146.20 395.21
  L 146.26 404.63
  A 0.66 0.66 0.0 0 0 146.93 405.29
  L 147.19 405.29
  A 5.36 5.15 -0.4 0 0 152.51 400.10
  L 152.51 399.66
  A 5.36 5.15 -0.4 0 0 147.11 394.55
  L 146.85 394.55
  A 0.66 0.66 0.0 0 0 146.20 395.21
  Z"
/>
<path fill="#a2a906" d="
  M 174.63 399.57
  Q 179.79 403.05 175.27 408.34
  A 0.92 0.89 18.4 0 1 174.63 408.65
  L 165.22 409.14
  Q 164.50 409.17 164.50 408.46
  L 164.50 391.52
  Q 164.50 391.08 164.95 391.06
  C 169.55 390.88 176.00 390.06 175.81 395.80
  C 175.77 397.08 175.33 397.74 174.51 398.69
  Q 174.08 399.20 174.63 399.57
  Z
  M 168.50 394.77
  L 168.71 397.62
  A 0.72 0.72 0.0 0 0 169.49 398.28
  L 169.60 398.27
  A 2.59 2.02 -4.4 0 0 172.02 396.06
  L 172.00 395.80
  A 2.59 2.02 -4.4 0 0 169.27 393.98
  L 169.16 393.99
  A 0.72 0.72 0.0 0 0 168.50 394.77
  Z
  M 168.55 402.04
  L 168.51 405.16
  A 0.58 0.58 0.0 0 0 169.08 405.75
  L 170.65 405.77
  A 2.57 2.00 0.7 0 0 173.25 403.80
  L 173.25 403.52
  A 2.57 2.00 0.7 0 0 170.71 401.49
  L 169.14 401.47
  A 0.58 0.58 0.0 0 0 168.55 402.04
  Z"
/>
<path fill="#72cc10" d="
  M 236.01 398.16
  L 241.40 397.93
  A 0.37 0.37 0.0 0 1 241.78 398.30
  L 241.74 401.39
  A 0.37 0.37 0.0 0 1 241.37 401.75
  L 235.92 401.75
  A 0.37 0.37 0.0 0 0 235.55 402.12
  L 235.60 408.63
  A 0.37 0.37 0.0 0 1 235.23 409.00
  L 231.87 409.00
  A 0.37 0.37 0.0 0 1 231.50 408.63
  L 231.50 391.37
  A 0.37 0.37 0.0 0 1 231.87 391.00
  L 241.64 391.00
  A 0.37 0.37 0.0 0 1 242.01 391.37
  L 242.01 394.13
  A 0.37 0.37 0.0 0 1 241.64 394.50
  L 236.00 394.50
  A 0.37 0.37 0.0 0 0 235.63 394.87
  L 235.62 397.79
  A 0.37 0.37 0.0 0 0 236.01 398.16
  Z"
/>
<path fill="#72cc10" d="
  M 329.75 403.72
  L 329.75 408.37
  Q 329.75 409.00 329.12 409.00
  L 326.38 409.00
  Q 325.75 409.00 325.75 408.38
  L 325.75 391.72
  Q 325.75 391.11 326.36 391.06
  Q 329.70 390.81 332.99 391.10
  C 339.15 391.63 339.67 399.63 334.67 402.20
  Q 334.12 402.49 334.51 402.97
  L 338.63 408.15
  A 0.52 0.52 0.0 0 1 338.22 409.00
  L 334.72 409.00
  A 0.98 0.98 0.0 0 1 333.90 408.56
  L 330.56 403.48
  A 0.44 0.44 0.0 0 0 329.75 403.72
  Z
  M 329.78 394.81
  L 329.76 398.45
  A 0.81 0.81 0.0 0 0 330.57 399.26
  L 331.54 399.27
  A 2.70 2.43 0.2 0 0 334.25 396.85
  L 334.25 396.45
  A 2.70 2.43 0.2 0 0 331.56 394.01
  L 330.59 394.01
  A 0.81 0.81 0.0 0 0 329.78 394.81
  Z"
/>
<path fill="#fefffe" d="
  M 168.50 394.77
  A 0.72 0.72 0.0 0 1 169.16 393.99
  L 169.27 393.98
  A 2.59 2.02 -4.4 0 1 172.00 395.80
  L 172.02 396.06
  A 2.59 2.02 -4.4 0 1 169.60 398.27
  L 169.49 398.28
  A 0.72 0.72 0.0 0 1 168.71 397.62
  L 168.50 394.77
  Z"
/>
<path fill="#fefffe" d="
  M 329.78 394.81
  A 0.81 0.81 0.0 0 1 330.59 394.01
  L 331.56 394.01
  A 2.70 2.43 0.2 0 1 334.25 396.45
  L 334.25 396.85
  A 2.70 2.43 0.2 0 1 331.54 399.27
  L 330.57 399.26
  A 0.81 0.81 0.0 0 1 329.76 398.45
  L 329.78 394.81
  Z"
/>
<path fill="#fefffe" d="
  M 146.20 395.21
  A 0.66 0.66 0.0 0 1 146.85 394.55
  L 147.11 394.55
  A 5.36 5.15 -0.4 0 1 152.51 399.66
  L 152.51 400.10
  A 5.36 5.15 -0.4 0 1 147.19 405.29
  L 146.93 405.29
  A 0.66 0.66 0.0 0 1 146.26 404.63
  L 146.20 395.21
  Z"
/>
<circle fill="#fefffe" cx="214.50" cy="399.93" r="5.13"/>
<circle fill="#fefffe" cx="308.75" cy="399.93" r="5.12"/>
<path fill="#fefffe" d="
  M 168.55 402.04
  A 0.58 0.58 0.0 0 1 169.14 401.47
  L 170.71 401.49
  A 2.57 2.00 0.7 0 1 173.25 403.52
  L 173.25 403.80
  A 2.57 2.00 0.7 0 1 170.65 405.77
  L 169.08 405.75
  A 0.58 0.58 0.0 0 1 168.51 405.16
  L 168.55 402.04
  Z"
/>
</svg>
